<mxfile host="app.diagrams.net" agent="Mozilla/5.0 (Windows NT 10.0; Win64; x64) AppleWebKit/537.36 (KHTML, like Gecko) Chrome/132.0.0.0 Safari/537.36" version="26.0.11">
  <diagram name="Page-1" id="5ritl1ZaLJsPIPuFBYbC">
    <mxGraphModel dx="2836" dy="2015" grid="1" gridSize="10" guides="1" tooltips="1" connect="1" arrows="1" fold="1" page="1" pageScale="1" pageWidth="827" pageHeight="1169" math="0" shadow="0">
      <root>
        <mxCell id="0" />
        <mxCell id="1" parent="0" />
        <UserObject label="" mermaidData="{&#xa;  &quot;data&quot;: &quot;classDiagram\n    class Customer {\n        -id: int\n        -name: string\n        -email: string\n        -phone: string\n    }\n\n    class Product {\n        -id: int\n        -name: string\n        -description: string\n        -price: float\n    }\n\n    class Order {\n        -id: int\n        -orderDate: Date\n        -status: string\n    }\n\n    class OrderItem {\n        -quantity: int\n        -totalPrice: float\n    }\n\n    class Invoice {\n        -id: int\n        -invoiceDate: Date\n        -totalAmount: float\n    }\n\n    class Payment {\n        -id: int\n        -paymentDate: Date\n        -amount: float\n        -method: string\n    }\n\n    class Address {\n        -street: string\n        -city: string\n        -state: string\n        -zipCode: string\n        -country: string\n    }\n\n    class ShoppingCart {\n        -createdDate: Date\n    }\n\n    class Review {\n        -rating: int\n        -comment: string\n        -reviewDate: Date\n    }\n\n    Customer \&quot;1\&quot; --o \&quot;1\&quot; ShoppingCart : owns\n    ShoppingCart \&quot;1\&quot; --o \&quot;*\&quot; OrderItem : contains\n    OrderItem \&quot;*\&quot; --o \&quot;1\&quot; Product : includes\n    Customer \&quot;1\&quot; --o \&quot;*\&quot; Order : places\n    Order \&quot;1\&quot; --o \&quot;1\&quot; Invoice : generates\n    Order \&quot;1\&quot; --o \&quot;1\&quot; Payment : includes\n    Customer \&quot;1\&quot; --o \&quot;*\&quot; Review : writes\n    Customer \&quot;1\&quot; --o \&quot;1\&quot; Address : has\n\n&quot;&#xa;}" id="uJSVkZmtrDSFOi7fFDyV-4">
          <mxCell style="shape=image;noLabel=1;verticalAlign=top;imageAspect=1;image=data:image/svg+xml,PHN2ZyBhcmlhLXJvbGVkZXNjcmlwdGlvbj0iY2xhc3MiIHJvbGU9ImdyYXBoaWNzLWRvY3VtZW50IGRvY3VtZW50IiB2aWV3Qm94PSIwIDAgOTA4LjA5MTc5Njg3NSAxMDI1LjUiIHN0eWxlPSJtYXgtd2lkdGg6IDkwOC4wOTE3OTY4NzVweDsiIGNsYXNzPSJjbGFzc0RpYWdyYW0iIHhtbG5zPSJodHRwOi8vd3d3LnczLm9yZy8yMDAwL3N2ZyIgd2lkdGg9IjEwMCUiIGlkPSJnZU1lcm1haWRPdXRwdXQtMTczODkwNTM4MDQxMCI+PHN0eWxlPiNnZU1lcm1haWRPdXRwdXQtMTczODkwNTM4MDQxMHtmb250LWZhbWlseToidHJlYnVjaGV0IG1zIix2ZXJkYW5hLGFyaWFsLHNhbnMtc2VyaWY7Zm9udC1zaXplOjE2cHg7ZmlsbDojMDAwMDAwO30jZ2VNZXJtYWlkT3V0cHV0LTE3Mzg5MDUzODA0MTAgLmVycm9yLWljb257ZmlsbDojNTUyMjIyO30jZ2VNZXJtYWlkT3V0cHV0LTE3Mzg5MDUzODA0MTAgLmVycm9yLXRleHR7ZmlsbDojNTUyMjIyO3N0cm9rZTojNTUyMjIyO30jZ2VNZXJtYWlkT3V0cHV0LTE3Mzg5MDUzODA0MTAgLmVkZ2UtdGhpY2tuZXNzLW5vcm1hbHtzdHJva2Utd2lkdGg6MXB4O30jZ2VNZXJtYWlkT3V0cHV0LTE3Mzg5MDUzODA0MTAgLmVkZ2UtdGhpY2tuZXNzLXRoaWNre3N0cm9rZS13aWR0aDozLjVweDt9I2dlTWVybWFpZE91dHB1dC0xNzM4OTA1MzgwNDEwIC5lZGdlLXBhdHRlcm4tc29saWR7c3Ryb2tlLWRhc2hhcnJheTowO30jZ2VNZXJtYWlkT3V0cHV0LTE3Mzg5MDUzODA0MTAgLmVkZ2UtdGhpY2tuZXNzLWludmlzaWJsZXtzdHJva2Utd2lkdGg6MDtmaWxsOm5vbmU7fSNnZU1lcm1haWRPdXRwdXQtMTczODkwNTM4MDQxMCAuZWRnZS1wYXR0ZXJuLWRhc2hlZHtzdHJva2UtZGFzaGFycmF5OjM7fSNnZU1lcm1haWRPdXRwdXQtMTczODkwNTM4MDQxMCAuZWRnZS1wYXR0ZXJuLWRvdHRlZHtzdHJva2UtZGFzaGFycmF5OjI7fSNnZU1lcm1haWRPdXRwdXQtMTczODkwNTM4MDQxMCAubWFya2Vye2ZpbGw6IzY2NjtzdHJva2U6IzY2Njt9I2dlTWVybWFpZE91dHB1dC0xNzM4OTA1MzgwNDEwIC5tYXJrZXIuY3Jvc3N7c3Ryb2tlOiM2NjY7fSNnZU1lcm1haWRPdXRwdXQtMTczODkwNTM4MDQxMCBzdmd7Zm9udC1mYW1pbHk6InRyZWJ1Y2hldCBtcyIsdmVyZGFuYSxhcmlhbCxzYW5zLXNlcmlmO2ZvbnQtc2l6ZToxNnB4O30jZ2VNZXJtYWlkT3V0cHV0LTE3Mzg5MDUzODA0MTAgcHttYXJnaW46MDt9I2dlTWVybWFpZE91dHB1dC0xNzM4OTA1MzgwNDEwIGcuY2xhc3NHcm91cCB0ZXh0e2ZpbGw6Izk5OTtzdHJva2U6bm9uZTtmb250LWZhbWlseToidHJlYnVjaGV0IG1zIix2ZXJkYW5hLGFyaWFsLHNhbnMtc2VyaWY7Zm9udC1zaXplOjEwcHg7fSNnZU1lcm1haWRPdXRwdXQtMTczODkwNTM4MDQxMCBnLmNsYXNzR3JvdXAgdGV4dCAudGl0bGV7Zm9udC13ZWlnaHQ6Ym9sZGVyO30jZ2VNZXJtYWlkT3V0cHV0LTE3Mzg5MDUzODA0MTAgLm5vZGVMYWJlbCwjZ2VNZXJtYWlkT3V0cHV0LTE3Mzg5MDUzODA0MTAgLmVkZ2VMYWJlbHtjb2xvcjojMTExMTExO30jZ2VNZXJtYWlkT3V0cHV0LTE3Mzg5MDUzODA0MTAgLmVkZ2VMYWJlbCAubGFiZWwgcmVjdHtmaWxsOiNlZWU7fSNnZU1lcm1haWRPdXRwdXQtMTczODkwNTM4MDQxMCAubGFiZWwgdGV4dHtmaWxsOiMxMTExMTE7fSNnZU1lcm1haWRPdXRwdXQtMTczODkwNTM4MDQxMCAubGFiZWxCa2d7YmFja2dyb3VuZDojZWVlO30jZ2VNZXJtYWlkT3V0cHV0LTE3Mzg5MDUzODA0MTAgLmVkZ2VMYWJlbCAubGFiZWwgc3BhbntiYWNrZ3JvdW5kOiNlZWU7fSNnZU1lcm1haWRPdXRwdXQtMTczODkwNTM4MDQxMCAuY2xhc3NUaXRsZXtmb250LXdlaWdodDpib2xkZXI7fSNnZU1lcm1haWRPdXRwdXQtMTczODkwNTM4MDQxMCAubm9kZSByZWN0LCNnZU1lcm1haWRPdXRwdXQtMTczODkwNTM4MDQxMCAubm9kZSBjaXJjbGUsI2dlTWVybWFpZE91dHB1dC0xNzM4OTA1MzgwNDEwIC5ub2RlIGVsbGlwc2UsI2dlTWVybWFpZE91dHB1dC0xNzM4OTA1MzgwNDEwIC5ub2RlIHBvbHlnb24sI2dlTWVybWFpZE91dHB1dC0xNzM4OTA1MzgwNDEwIC5ub2RlIHBhdGh7ZmlsbDojZWVlO3N0cm9rZTojOTk5O3N0cm9rZS13aWR0aDoxcHg7fSNnZU1lcm1haWRPdXRwdXQtMTczODkwNTM4MDQxMCAuZGl2aWRlcntzdHJva2U6Izk5OTtzdHJva2Utd2lkdGg6MTt9I2dlTWVybWFpZE91dHB1dC0xNzM4OTA1MzgwNDEwIGcuY2xpY2thYmxle2N1cnNvcjpwb2ludGVyO30jZ2VNZXJtYWlkT3V0cHV0LTE3Mzg5MDUzODA0MTAgZy5jbGFzc0dyb3VwIHJlY3R7ZmlsbDojZWVlO3N0cm9rZTojOTk5O30jZ2VNZXJtYWlkT3V0cHV0LTE3Mzg5MDUzODA0MTAgZy5jbGFzc0dyb3VwIGxpbmV7c3Ryb2tlOiM5OTk7c3Ryb2tlLXdpZHRoOjE7fSNnZU1lcm1haWRPdXRwdXQtMTczODkwNTM4MDQxMCAuY2xhc3NMYWJlbCAuYm94e3N0cm9rZTpub25lO3N0cm9rZS13aWR0aDowO2ZpbGw6I2VlZTtvcGFjaXR5OjAuNTt9I2dlTWVybWFpZE91dHB1dC0xNzM4OTA1MzgwNDEwIC5jbGFzc0xhYmVsIC5sYWJlbHtmaWxsOiM5OTk7Zm9udC1zaXplOjEwcHg7fSNnZU1lcm1haWRPdXRwdXQtMTczODkwNTM4MDQxMCAucmVsYXRpb257c3Ryb2tlOiM2NjY7c3Ryb2tlLXdpZHRoOjE7ZmlsbDpub25lO30jZ2VNZXJtYWlkT3V0cHV0LTE3Mzg5MDUzODA0MTAgLmRhc2hlZC1saW5le3N0cm9rZS1kYXNoYXJyYXk6Mzt9I2dlTWVybWFpZE91dHB1dC0xNzM4OTA1MzgwNDEwIC5kb3R0ZWQtbGluZXtzdHJva2UtZGFzaGFycmF5OjEgMjt9I2dlTWVybWFpZE91dHB1dC0xNzM4OTA1MzgwNDEwICNjb21wb3NpdGlvblN0YXJ0LCNnZU1lcm1haWRPdXRwdXQtMTczODkwNTM4MDQxMCAuY29tcG9zaXRpb257ZmlsbDojNjY2IWltcG9ydGFudDtzdHJva2U6IzY2NiFpbXBvcnRhbnQ7c3Ryb2tlLXdpZHRoOjE7fSNnZU1lcm1haWRPdXRwdXQtMTczODkwNTM4MDQxMCAjY29tcG9zaXRpb25FbmQsI2dlTWVybWFpZE91dHB1dC0xNzM4OTA1MzgwNDEwIC5jb21wb3NpdGlvbntmaWxsOiM2NjYhaW1wb3J0YW50O3N0cm9rZTojNjY2IWltcG9ydGFudDtzdHJva2Utd2lkdGg6MTt9I2dlTWVybWFpZE91dHB1dC0xNzM4OTA1MzgwNDEwICNkZXBlbmRlbmN5U3RhcnQsI2dlTWVybWFpZE91dHB1dC0xNzM4OTA1MzgwNDEwIC5kZXBlbmRlbmN5e2ZpbGw6IzY2NiFpbXBvcnRhbnQ7c3Ryb2tlOiM2NjYhaW1wb3J0YW50O3N0cm9rZS13aWR0aDoxO30jZ2VNZXJtYWlkT3V0cHV0LTE3Mzg5MDUzODA0MTAgI2RlcGVuZGVuY3lTdGFydCwjZ2VNZXJtYWlkT3V0cHV0LTE3Mzg5MDUzODA0MTAgLmRlcGVuZGVuY3l7ZmlsbDojNjY2IWltcG9ydGFudDtzdHJva2U6IzY2NiFpbXBvcnRhbnQ7c3Ryb2tlLXdpZHRoOjE7fSNnZU1lcm1haWRPdXRwdXQtMTczODkwNTM4MDQxMCAjZXh0ZW5zaW9uU3RhcnQsI2dlTWVybWFpZE91dHB1dC0xNzM4OTA1MzgwNDEwIC5leHRlbnNpb257ZmlsbDp0cmFuc3BhcmVudCFpbXBvcnRhbnQ7c3Ryb2tlOiM2NjYhaW1wb3J0YW50O3N0cm9rZS13aWR0aDoxO30jZ2VNZXJtYWlkT3V0cHV0LTE3Mzg5MDUzODA0MTAgI2V4dGVuc2lvbkVuZCwjZ2VNZXJtYWlkT3V0cHV0LTE3Mzg5MDUzODA0MTAgLmV4dGVuc2lvbntmaWxsOnRyYW5zcGFyZW50IWltcG9ydGFudDtzdHJva2U6IzY2NiFpbXBvcnRhbnQ7c3Ryb2tlLXdpZHRoOjE7fSNnZU1lcm1haWRPdXRwdXQtMTczODkwNTM4MDQxMCAjYWdncmVnYXRpb25TdGFydCwjZ2VNZXJtYWlkT3V0cHV0LTE3Mzg5MDUzODA0MTAgLmFnZ3JlZ2F0aW9ue2ZpbGw6dHJhbnNwYXJlbnQhaW1wb3J0YW50O3N0cm9rZTojNjY2IWltcG9ydGFudDtzdHJva2Utd2lkdGg6MTt9I2dlTWVybWFpZE91dHB1dC0xNzM4OTA1MzgwNDEwICNhZ2dyZWdhdGlvbkVuZCwjZ2VNZXJtYWlkT3V0cHV0LTE3Mzg5MDUzODA0MTAgLmFnZ3JlZ2F0aW9ue2ZpbGw6dHJhbnNwYXJlbnQhaW1wb3J0YW50O3N0cm9rZTojNjY2IWltcG9ydGFudDtzdHJva2Utd2lkdGg6MTt9I2dlTWVybWFpZE91dHB1dC0xNzM4OTA1MzgwNDEwICNsb2xsaXBvcFN0YXJ0LCNnZU1lcm1haWRPdXRwdXQtMTczODkwNTM4MDQxMCAubG9sbGlwb3B7ZmlsbDojZWVlIWltcG9ydGFudDtzdHJva2U6IzY2NiFpbXBvcnRhbnQ7c3Ryb2tlLXdpZHRoOjE7fSNnZU1lcm1haWRPdXRwdXQtMTczODkwNTM4MDQxMCAjbG9sbGlwb3BFbmQsI2dlTWVybWFpZE91dHB1dC0xNzM4OTA1MzgwNDEwIC5sb2xsaXBvcHtmaWxsOiNlZWUhaW1wb3J0YW50O3N0cm9rZTojNjY2IWltcG9ydGFudDtzdHJva2Utd2lkdGg6MTt9I2dlTWVybWFpZE91dHB1dC0xNzM4OTA1MzgwNDEwIC5lZGdlVGVybWluYWxze2ZvbnQtc2l6ZToxMXB4O2xpbmUtaGVpZ2h0OmluaXRpYWw7fSNnZU1lcm1haWRPdXRwdXQtMTczODkwNTM4MDQxMCAuY2xhc3NUaXRsZVRleHR7dGV4dC1hbmNob3I6bWlkZGxlO2ZvbnQtc2l6ZToxOHB4O2ZpbGw6IzAwMDAwMDt9I2dlTWVybWFpZE91dHB1dC0xNzM4OTA1MzgwNDEwIDpyb290ey0tbWVybWFpZC1mb250LWZhbWlseToidHJlYnVjaGV0IG1zIix2ZXJkYW5hLGFyaWFsLHNhbnMtc2VyaWY7fTwvc3R5bGU+PGc+PGRlZnM+PG1hcmtlciBvcmllbnQ9ImF1dG8iIG1hcmtlckhlaWdodD0iMjQwIiBtYXJrZXJXaWR0aD0iMTkwIiByZWZZPSI3IiByZWZYPSIxOCIgY2xhc3M9Im1hcmtlciBhZ2dyZWdhdGlvbiBjbGFzcyIgaWQ9ImdlTWVybWFpZE91dHB1dC0xNzM4OTA1MzgwNDEwX2NsYXNzLWFnZ3JlZ2F0aW9uU3RhcnQiPjxwYXRoIGQ9Ik0gMTgsNyBMOSwxMyBMMSw3IEw5LDEgWiI+PC9wYXRoPjwvbWFya2VyPjwvZGVmcz48ZGVmcz48bWFya2VyIG9yaWVudD0iYXV0byIgbWFya2VySGVpZ2h0PSIyOCIgbWFya2VyV2lkdGg9IjIwIiByZWZZPSI3IiByZWZYPSIxIiBjbGFzcz0ibWFya2VyIGFnZ3JlZ2F0aW9uIGNsYXNzIiBpZD0iZ2VNZXJtYWlkT3V0cHV0LTE3Mzg5MDUzODA0MTBfY2xhc3MtYWdncmVnYXRpb25FbmQiPjxwYXRoIGQ9Ik0gMTgsNyBMOSwxMyBMMSw3IEw5LDEgWiI+PC9wYXRoPjwvbWFya2VyPjwvZGVmcz48ZGVmcz48bWFya2VyIG9yaWVudD0iYXV0byIgbWFya2VySGVpZ2h0PSIyNDAiIG1hcmtlcldpZHRoPSIxOTAiIHJlZlk9IjciIHJlZlg9IjE4IiBjbGFzcz0ibWFya2VyIGV4dGVuc2lvbiBjbGFzcyIgaWQ9ImdlTWVybWFpZE91dHB1dC0xNzM4OTA1MzgwNDEwX2NsYXNzLWV4dGVuc2lvblN0YXJ0Ij48cGF0aCBkPSJNIDEsNyBMMTgsMTMgViAxIFoiPjwvcGF0aD48L21hcmtlcj48L2RlZnM+PGRlZnM+PG1hcmtlciBvcmllbnQ9ImF1dG8iIG1hcmtlckhlaWdodD0iMjgiIG1hcmtlcldpZHRoPSIyMCIgcmVmWT0iNyIgcmVmWD0iMSIgY2xhc3M9Im1hcmtlciBleHRlbnNpb24gY2xhc3MiIGlkPSJnZU1lcm1haWRPdXRwdXQtMTczODkwNTM4MDQxMF9jbGFzcy1leHRlbnNpb25FbmQiPjxwYXRoIGQ9Ik0gMSwxIFYgMTMgTDE4LDcgWiI+PC9wYXRoPjwvbWFya2VyPjwvZGVmcz48ZGVmcz48bWFya2VyIG9yaWVudD0iYXV0byIgbWFya2VySGVpZ2h0PSIyNDAiIG1hcmtlcldpZHRoPSIxOTAiIHJlZlk9IjciIHJlZlg9IjE4IiBjbGFzcz0ibWFya2VyIGNvbXBvc2l0aW9uIGNsYXNzIiBpZD0iZ2VNZXJtYWlkT3V0cHV0LTE3Mzg5MDUzODA0MTBfY2xhc3MtY29tcG9zaXRpb25TdGFydCI+PHBhdGggZD0iTSAxOCw3IEw5LDEzIEwxLDcgTDksMSBaIj48L3BhdGg+PC9tYXJrZXI+PC9kZWZzPjxkZWZzPjxtYXJrZXIgb3JpZW50PSJhdXRvIiBtYXJrZXJIZWlnaHQ9IjI4IiBtYXJrZXJXaWR0aD0iMjAiIHJlZlk9IjciIHJlZlg9IjEiIGNsYXNzPSJtYXJrZXIgY29tcG9zaXRpb24gY2xhc3MiIGlkPSJnZU1lcm1haWRPdXRwdXQtMTczODkwNTM4MDQxMF9jbGFzcy1jb21wb3NpdGlvbkVuZCI+PHBhdGggZD0iTSAxOCw3IEw5LDEzIEwxLDcgTDksMSBaIj48L3BhdGg+PC9tYXJrZXI+PC9kZWZzPjxkZWZzPjxtYXJrZXIgb3JpZW50PSJhdXRvIiBtYXJrZXJIZWlnaHQ9IjI0MCIgbWFya2VyV2lkdGg9IjE5MCIgcmVmWT0iNyIgcmVmWD0iNiIgY2xhc3M9Im1hcmtlciBkZXBlbmRlbmN5IGNsYXNzIiBpZD0iZ2VNZXJtYWlkT3V0cHV0LTE3Mzg5MDUzODA0MTBfY2xhc3MtZGVwZW5kZW5jeVN0YXJ0Ij48cGF0aCBkPSJNIDUsNyBMOSwxMyBMMSw3IEw5LDEgWiI+PC9wYXRoPjwvbWFya2VyPjwvZGVmcz48ZGVmcz48bWFya2VyIG9yaWVudD0iYXV0byIgbWFya2VySGVpZ2h0PSIyOCIgbWFya2VyV2lkdGg9IjIwIiByZWZZPSI3IiByZWZYPSIxMyIgY2xhc3M9Im1hcmtlciBkZXBlbmRlbmN5IGNsYXNzIiBpZD0iZ2VNZXJtYWlkT3V0cHV0LTE3Mzg5MDUzODA0MTBfY2xhc3MtZGVwZW5kZW5jeUVuZCI+PHBhdGggZD0iTSAxOCw3IEw5LDEzIEwxNCw3IEw5LDEgWiI+PC9wYXRoPjwvbWFya2VyPjwvZGVmcz48ZGVmcz48bWFya2VyIG9yaWVudD0iYXV0byIgbWFya2VySGVpZ2h0PSIyNDAiIG1hcmtlcldpZHRoPSIxOTAiIHJlZlk9IjciIHJlZlg9IjEzIiBjbGFzcz0ibWFya2VyIGxvbGxpcG9wIGNsYXNzIiBpZD0iZ2VNZXJtYWlkT3V0cHV0LTE3Mzg5MDUzODA0MTBfY2xhc3MtbG9sbGlwb3BTdGFydCI+PGNpcmNsZSByPSI2IiBjeT0iNyIgY3g9IjciIGZpbGw9InRyYW5zcGFyZW50IiBzdHJva2U9ImJsYWNrIj48L2NpcmNsZT48L21hcmtlcj48L2RlZnM+PGRlZnM+PG1hcmtlciBvcmllbnQ9ImF1dG8iIG1hcmtlckhlaWdodD0iMjQwIiBtYXJrZXJXaWR0aD0iMTkwIiByZWZZPSI3IiByZWZYPSIxIiBjbGFzcz0ibWFya2VyIGxvbGxpcG9wIGNsYXNzIiBpZD0iZ2VNZXJtYWlkT3V0cHV0LTE3Mzg5MDUzODA0MTBfY2xhc3MtbG9sbGlwb3BFbmQiPjxjaXJjbGUgcj0iNiIgY3k9IjciIGN4PSI3IiBmaWxsPSJ0cmFuc3BhcmVudCIgc3Ryb2tlPSJibGFjayI+PC9jaXJjbGU+PC9tYXJrZXI+PC9kZWZzPjxnIGNsYXNzPSJyb290Ij48ZyBjbGFzcz0iY2x1c3RlcnMiPjwvZz48ZyBjbGFzcz0iZWRnZVBhdGhzIj48cGF0aCBtYXJrZXItZW5kPSJ1cmwoI2dlTWVybWFpZE91dHB1dC0xNzM4OTA1MzgwNDEwX2NsYXNzLWFnZ3JlZ2F0aW9uRW5kKSIgc3R5bGU9IjsiIGNsYXNzPSJlZGdlLXRoaWNrbmVzcy1ub3JtYWwgZWRnZS1wYXR0ZXJuLXNvbGlkIHJlbGF0aW9uIiBpZD0iaWRfQ3VzdG9tZXJfU2hvcHBpbmdDYXJ0XzEiIGQ9Ik0zOTUuMTk4LDEzMy4zMzRMMzQ4LjMyOCwxNTAuNDg3QzMwMS40NTgsMTY3LjYzOSwyMDcuNzE4LDIwMS45NDUsMTYwLjg0OCwyMzAuMTM5QzExMy45NzksMjU4LjMzMywxMTMuOTc5LDI4MC40MTcsMTEzLjk3OSwyOTEuNDU4TDExMy45NzksMzAyLjUiPjwvcGF0aD48cGF0aCBtYXJrZXItZW5kPSJ1cmwoI2dlTWVybWFpZE91dHB1dC0xNzM4OTA1MzgwNDEwX2NsYXNzLWFnZ3JlZ2F0aW9uRW5kKSIgc3R5bGU9IjsiIGNsYXNzPSJlZGdlLXRoaWNrbmVzcy1ub3JtYWwgZWRnZS1wYXR0ZXJuLXNvbGlkIHJlbGF0aW9uIiBpZD0iaWRfU2hvcHBpbmdDYXJ0X09yZGVySXRlbV8yIiBkPSJNMTEzLjk3OSw0NDAuNUwxMTMuOTc5LDQ1NC41NDJDMTEzLjk3OSw0NjguNTgzLDExMy45NzksNDk2LjY2NywxMTMuOTc5LDUxNy43NUMxMTMuOTc5LDUzOC44MzMsMTEzLjk3OSw1NTIuOTE3LDExMy45NzksNTU5Ljk1OEwxMTMuOTc5LDU2NyI+PC9wYXRoPjxwYXRoIG1hcmtlci1lbmQ9InVybCgjZ2VNZXJtYWlkT3V0cHV0LTE3Mzg5MDUzODA0MTBfY2xhc3MtYWdncmVnYXRpb25FbmQpIiBzdHlsZT0iOyIgY2xhc3M9ImVkZ2UtdGhpY2tuZXNzLW5vcm1hbCBlZGdlLXBhdHRlcm4tc29saWQgcmVsYXRpb24iIGlkPSJpZF9PcmRlckl0ZW1fUHJvZHVjdF8zIiBkPSJNMTEzLjk3OSw3MjlMMTEzLjk3OSw3MzkuMDQyQzExMy45NzksNzQ5LjA4MywxMTMuOTc5LDc2OS4xNjcsMTEzLjk3OSw3ODIuMjVDMTEzLjk3OSw3OTUuMzMzLDExMy45NzksODAxLjQxNywxMTMuOTc5LDgwNC40NThMMTEzLjk3OSw4MDcuNSI+PC9wYXRoPjxwYXRoIG1hcmtlci1lbmQ9InVybCgjZ2VNZXJtYWlkT3V0cHV0LTE3Mzg5MDUzODA0MTBfY2xhc3MtYWdncmVnYXRpb25FbmQpIiBzdHlsZT0iOyIgY2xhc3M9ImVkZ2UtdGhpY2tuZXNzLW5vcm1hbCBlZGdlLXBhdHRlcm4tc29saWQgcmVsYXRpb24iIGlkPSJpZF9DdXN0b21lcl9PcmRlcl80IiBkPSJNNTU0LjIyMSwyMDBMNTU5LjE4NSwyMDYuMDQyQzU2NC4xNDgsMjEyLjA4Myw1NzQuMDc1LDIyNC4xNjcsNTc5LjAzOSwyMzcuMjVDNTg0LjAwMiwyNTAuMzMzLDU4NC4wMDIsMjY0LjQxNyw1ODQuMDAyLDI3MS40NThMNTg0LjAwMiwyNzguNSI+PC9wYXRoPjxwYXRoIG1hcmtlci1lbmQ9InVybCgjZ2VNZXJtYWlkT3V0cHV0LTE3Mzg5MDUzODA0MTBfY2xhc3MtYWdncmVnYXRpb25FbmQpIiBzdHlsZT0iOyIgY2xhc3M9ImVkZ2UtdGhpY2tuZXNzLW5vcm1hbCBlZGdlLXBhdHRlcm4tc29saWQgcmVsYXRpb24iIGlkPSJpZF9PcmRlcl9JbnZvaWNlXzUiIGQ9Ik01MTIuMzAxLDQ2NC41TDUwMy43Myw0NzQuNTQyQzQ5NS4xNTksNDg0LjU4Myw0NzguMDE2LDUwNC42NjcsNDY5LjQ0NCw1MTkuNzVDNDYwLjg3Myw1MzQuODMzLDQ2MC44NzMsNTQ0LjkxNyw0NjAuODczLDU0OS45NThMNDYwLjg3Myw1NTUiPjwvcGF0aD48cGF0aCBtYXJrZXItZW5kPSJ1cmwoI2dlTWVybWFpZE91dHB1dC0xNzM4OTA1MzgwNDEwX2NsYXNzLWFnZ3JlZ2F0aW9uRW5kKSIgc3R5bGU9IjsiIGNsYXNzPSJlZGdlLXRoaWNrbmVzcy1ub3JtYWwgZWRnZS1wYXR0ZXJuLXNvbGlkIHJlbGF0aW9uIiBpZD0iaWRfT3JkZXJfUGF5bWVudF82IiBkPSJNNjU1LjcwMyw0NjQuNUw2NjQuMjc0LDQ3NC41NDJDNjcyLjg0NSw0ODQuNTgzLDY4OS45ODgsNTA0LjY2Nyw2OTguNTU5LDUxNy43NUM3MDcuMTMxLDUzMC44MzMsNzA3LjEzMSw1MzYuOTE3LDcwNy4xMzEsNTM5Ljk1OEw3MDcuMTMxLDU0MyI+PC9wYXRoPjxwYXRoIG1hcmtlci1lbmQ9InVybCgjZ2VNZXJtYWlkT3V0cHV0LTE3Mzg5MDUzODA0MTBfY2xhc3MtYWdncmVnYXRpb25FbmQpIiBzdHlsZT0iOyIgY2xhc3M9ImVkZ2UtdGhpY2tuZXNzLW5vcm1hbCBlZGdlLXBhdHRlcm4tc29saWQgcmVsYXRpb24iIGlkPSJpZF9DdXN0b21lcl9SZXZpZXdfNyIgZD0iTTU1NS41MTEsMTM1Ljc3OUw1OTcuNzQ3LDE1Mi41MjRDNjM5Ljk4MiwxNjkuMjcsNzI0LjQ1NCwyMDIuNzYsNzY2LjY5LDIyNi41NDdDODA4LjkyNiwyNTAuMzMzLDgwOC45MjYsMjY0LjQxNyw4MDguOTI2LDI3MS40NThMODA4LjkyNiwyNzguNSI+PC9wYXRoPjxwYXRoIG1hcmtlci1lbmQ9InVybCgjZ2VNZXJtYWlkT3V0cHV0LTE3Mzg5MDUzODA0MTBfY2xhc3MtYWdncmVnYXRpb25FbmQpIiBzdHlsZT0iOyIgY2xhc3M9ImVkZ2UtdGhpY2tuZXNzLW5vcm1hbCBlZGdlLXBhdHRlcm4tc29saWQgcmVsYXRpb24iIGlkPSJpZF9DdXN0b21lcl9BZGRyZXNzXzgiIGQ9Ik0zOTUuMTk4LDE5MC45OUwzODguMjQ4LDE5OC41MzRDMzgxLjI5NywyMDYuMDc3LDM2Ny4zOTYsMjIxLjE2MywzNjAuNDQ1LDIzMS43NDhDMzUzLjQ5NCwyNDIuMzMzLDM1My40OTQsMjQ4LjQxNywzNTMuNDk0LDI1MS40NThMMzUzLjQ5NCwyNTQuNSI+PC9wYXRoPjwvZz48ZyBjbGFzcz0iZWRnZUxhYmVscyI+PGcgdHJhbnNmb3JtPSJ0cmFuc2xhdGUoMTEzLjk3ODUxNTYyNSwgMjM2LjI1KSIgY2xhc3M9ImVkZ2VMYWJlbCI+PGcgdHJhbnNmb3JtPSJ0cmFuc2xhdGUoLTE5Ljg2NzE4NzUsIC0xMS4yNSkiIGNsYXNzPSJsYWJlbCI+PGc+PHJlY3QgaGVpZ2h0PSIyMi41IiB3aWR0aD0iMzkuNzM0Mzc1IiB5PSItMSIgeD0iLTIiIHN0eWxlPSI7ZGlzcGxheTogaW5saW5lLWJsb2NrIiBjbGFzcz0iYmFja2dyb3VuZCI+PC9yZWN0Pjx0ZXh0IHN0eWxlPSI7ZGlzcGxheTogaW5saW5lLWJsb2NrIiB5PSItMTAuMSI+PHRzcGFuIGR5PSIxLjFlbSIgeT0iLTAuMWVtIiB4PSIwIiBjbGFzcz0idGV4dC1vdXRlci10c3BhbiI+PHRzcGFuIGZvbnQtd2VpZ2h0PSJub3JtYWwiIGNsYXNzPSJ0ZXh0LWlubmVyLXRzcGFuIiBmb250LXN0eWxlPSJub3JtYWwiPm93bnM8L3RzcGFuPjwvdHNwYW4+PC90ZXh0PjwvZz48L2c+PC9nPjxnIHRyYW5zZm9ybT0idHJhbnNsYXRlKDExMy45Nzg1MTU2MjUsIDUyNC43NSkiIGNsYXNzPSJlZGdlTGFiZWwiPjxnIHRyYW5zZm9ybT0idHJhbnNsYXRlKC0zMS45MDIzNDM3NSwgLTExLjI1KSIgY2xhc3M9ImxhYmVsIj48Zz48cmVjdCBoZWlnaHQ9IjIyLjUiIHdpZHRoPSI2My44MDQ2ODc1IiB5PSItMSIgeD0iLTIiIHN0eWxlPSI7ZGlzcGxheTogaW5saW5lLWJsb2NrIiBjbGFzcz0iYmFja2dyb3VuZCI+PC9yZWN0Pjx0ZXh0IHN0eWxlPSI7ZGlzcGxheTogaW5saW5lLWJsb2NrIiB5PSItMTAuMSI+PHRzcGFuIGR5PSIxLjFlbSIgeT0iLTAuMWVtIiB4PSIwIiBjbGFzcz0idGV4dC1vdXRlci10c3BhbiI+PHRzcGFuIGZvbnQtd2VpZ2h0PSJub3JtYWwiIGNsYXNzPSJ0ZXh0LWlubmVyLXRzcGFuIiBmb250LXN0eWxlPSJub3JtYWwiPmNvbnRhaW5zPC90c3Bhbj48L3RzcGFuPjwvdGV4dD48L2c+PC9nPjwvZz48ZyB0cmFuc2Zvcm09InRyYW5zbGF0ZSgxMTMuOTc4NTE1NjI1LCA3ODkuMjUpIiBjbGFzcz0iZWRnZUxhYmVsIj48ZyB0cmFuc2Zvcm09InRyYW5zbGF0ZSgtMzEuNDE0MDYyNSwgLTExLjI1KSIgY2xhc3M9ImxhYmVsIj48Zz48cmVjdCBoZWlnaHQ9IjIyLjUiIHdpZHRoPSI2Mi44MjgxMjUiIHk9Ii0xIiB4PSItMiIgc3R5bGU9IjtkaXNwbGF5OiBpbmxpbmUtYmxvY2siIGNsYXNzPSJiYWNrZ3JvdW5kIj48L3JlY3Q+PHRleHQgc3R5bGU9IjtkaXNwbGF5OiBpbmxpbmUtYmxvY2siIHk9Ii0xMC4xIj48dHNwYW4gZHk9IjEuMWVtIiB5PSItMC4xZW0iIHg9IjAiIGNsYXNzPSJ0ZXh0LW91dGVyLXRzcGFuIj48dHNwYW4gZm9udC13ZWlnaHQ9Im5vcm1hbCIgY2xhc3M9InRleHQtaW5uZXItdHNwYW4iIGZvbnQtc3R5bGU9Im5vcm1hbCI+aW5jbHVkZXM8L3RzcGFuPjwvdHNwYW4+PC90ZXh0PjwvZz48L2c+PC9nPjxnIHRyYW5zZm9ybT0idHJhbnNsYXRlKDU4NC4wMDE5NTMxMjUsIDIzNi4yNSkiIGNsYXNzPSJlZGdlTGFiZWwiPjxnIHRyYW5zZm9ybT0idHJhbnNsYXRlKC0yNC41OTM3NSwgLTExLjI1KSIgY2xhc3M9ImxhYmVsIj48Zz48cmVjdCBoZWlnaHQ9IjIyLjUiIHdpZHRoPSI0OS4xODc1IiB5PSItMSIgeD0iLTIiIHN0eWxlPSI7ZGlzcGxheTogaW5saW5lLWJsb2NrIiBjbGFzcz0iYmFja2dyb3VuZCI+PC9yZWN0Pjx0ZXh0IHN0eWxlPSI7ZGlzcGxheTogaW5saW5lLWJsb2NrIiB5PSItMTAuMSI+PHRzcGFuIGR5PSIxLjFlbSIgeT0iLTAuMWVtIiB4PSIwIiBjbGFzcz0idGV4dC1vdXRlci10c3BhbiI+PHRzcGFuIGZvbnQtd2VpZ2h0PSJub3JtYWwiIGNsYXNzPSJ0ZXh0LWlubmVyLXRzcGFuIiBmb250LXN0eWxlPSJub3JtYWwiPnBsYWNlczwvdHNwYW4+PC90c3Bhbj48L3RleHQ+PC9nPjwvZz48L2c+PGcgdHJhbnNmb3JtPSJ0cmFuc2xhdGUoNDYwLjg3MzA0Njg3NSwgNTI0Ljc1KSIgY2xhc3M9ImVkZ2VMYWJlbCI+PGcgdHJhbnNmb3JtPSJ0cmFuc2xhdGUoLTM3LjIxMDkzNzUsIC0xMS4yNSkiIGNsYXNzPSJsYWJlbCI+PGc+PHJlY3QgaGVpZ2h0PSIyMi41IiB3aWR0aD0iNzQuNDIxODc1IiB5PSItMSIgeD0iLTIiIHN0eWxlPSI7ZGlzcGxheTogaW5saW5lLWJsb2NrIiBjbGFzcz0iYmFja2dyb3VuZCI+PC9yZWN0Pjx0ZXh0IHN0eWxlPSI7ZGlzcGxheTogaW5saW5lLWJsb2NrIiB5PSItMTAuMSI+PHRzcGFuIGR5PSIxLjFlbSIgeT0iLTAuMWVtIiB4PSIwIiBjbGFzcz0idGV4dC1vdXRlci10c3BhbiI+PHRzcGFuIGZvbnQtd2VpZ2h0PSJub3JtYWwiIGNsYXNzPSJ0ZXh0LWlubmVyLXRzcGFuIiBmb250LXN0eWxlPSJub3JtYWwiPmdlbmVyYXRlczwvdHNwYW4+PC90c3Bhbj48L3RleHQ+PC9nPjwvZz48L2c+PGcgdHJhbnNmb3JtPSJ0cmFuc2xhdGUoNzA3LjEzMDg1OTM3NSwgNTI0Ljc1KSIgY2xhc3M9ImVkZ2VMYWJlbCI+PGcgdHJhbnNmb3JtPSJ0cmFuc2xhdGUoLTMxLjQxNDA2MjUsIC0xMS4yNSkiIGNsYXNzPSJsYWJlbCI+PGc+PHJlY3QgaGVpZ2h0PSIyMi41IiB3aWR0aD0iNjIuODI4MTI1IiB5PSItMSIgeD0iLTIiIHN0eWxlPSI7ZGlzcGxheTogaW5saW5lLWJsb2NrIiBjbGFzcz0iYmFja2dyb3VuZCI+PC9yZWN0Pjx0ZXh0IHN0eWxlPSI7ZGlzcGxheTogaW5saW5lLWJsb2NrIiB5PSItMTAuMSI+PHRzcGFuIGR5PSIxLjFlbSIgeT0iLTAuMWVtIiB4PSIwIiBjbGFzcz0idGV4dC1vdXRlci10c3BhbiI+PHRzcGFuIGZvbnQtd2VpZ2h0PSJub3JtYWwiIGNsYXNzPSJ0ZXh0LWlubmVyLXRzcGFuIiBmb250LXN0eWxlPSJub3JtYWwiPmluY2x1ZGVzPC90c3Bhbj48L3RzcGFuPjwvdGV4dD48L2c+PC9nPjwvZz48ZyB0cmFuc2Zvcm09InRyYW5zbGF0ZSg4MDguOTI1NzgxMjUsIDIzNi4yNSkiIGNsYXNzPSJlZGdlTGFiZWwiPjxnIHRyYW5zZm9ybT0idHJhbnNsYXRlKC0yNC4zNzg5MDYyNSwgLTExLjI1KSIgY2xhc3M9ImxhYmVsIj48Zz48cmVjdCBoZWlnaHQ9IjIyLjUiIHdpZHRoPSI0OC43NTc4MTI1IiB5PSItMSIgeD0iLTIuNSIgc3R5bGU9IjtkaXNwbGF5OiBpbmxpbmUtYmxvY2siIGNsYXNzPSJiYWNrZ3JvdW5kIj48L3JlY3Q+PHRleHQgc3R5bGU9IjtkaXNwbGF5OiBpbmxpbmUtYmxvY2siIHk9Ii0xMC4xIj48dHNwYW4gZHk9IjEuMWVtIiB5PSItMC4xZW0iIHg9IjAiIGNsYXNzPSJ0ZXh0LW91dGVyLXRzcGFuIj48dHNwYW4gZm9udC13ZWlnaHQ9Im5vcm1hbCIgY2xhc3M9InRleHQtaW5uZXItdHNwYW4iIGZvbnQtc3R5bGU9Im5vcm1hbCI+d3JpdGVzPC90c3Bhbj48L3RzcGFuPjwvdGV4dD48L2c+PC9nPjwvZz48ZyB0cmFuc2Zvcm09InRyYW5zbGF0ZSgzNTMuNDk0MTQwNjI1LCAyMzYuMjUpIiBjbGFzcz0iZWRnZUxhYmVsIj48ZyB0cmFuc2Zvcm09InRyYW5zbGF0ZSgtMTMuODI0MjE4NzUsIC0xMS4yNSkiIGNsYXNzPSJsYWJlbCI+PGc+PHJlY3QgaGVpZ2h0PSIyMi41IiB3aWR0aD0iMjcuNjQ4NDM3NSIgeT0iLTEiIHg9Ii0yIiBzdHlsZT0iO2Rpc3BsYXk6IGlubGluZS1ibG9jayIgY2xhc3M9ImJhY2tncm91bmQiPjwvcmVjdD48dGV4dCBzdHlsZT0iO2Rpc3BsYXk6IGlubGluZS1ibG9jayIgeT0iLTEwLjEiPjx0c3BhbiBkeT0iMS4xZW0iIHk9Ii0wLjFlbSIgeD0iMCIgY2xhc3M9InRleHQtb3V0ZXItdHNwYW4iPjx0c3BhbiBmb250LXdlaWdodD0ibm9ybWFsIiBjbGFzcz0idGV4dC1pbm5lci10c3BhbiIgZm9udC1zdHlsZT0ibm9ybWFsIj5oYXM8L3RzcGFuPjwvdHNwYW4+PC90ZXh0PjwvZz48L2c+PC9nPjxnIHRyYW5zZm9ybT0idHJhbnNsYXRlKDM3My42MDkwOTg1MDc4MDE0LCAxMjUuMjYyMDcwNjgzMTUwOTQpIiBjbGFzcz0iZWRnZVRlcm1pbmFscyI+PGcgdHJhbnNmb3JtPSJ0cmFuc2xhdGUoLTIuODg2NzE4NzUsIC02LjUpIiBjbGFzcz0iaW5uZXIiPjx0ZXh0IHN0eWxlPSI7ZGlzcGxheTogaW5saW5lLWJsb2NrIj48dHNwYW4gY2xhc3M9InJvdyIgeD0iMCIgZHk9IjFlbSIgeG1sOnNwYWNlPSJwcmVzZXJ2ZSI+MTwvdHNwYW4+PC90ZXh0PjwvZz48L2c+PGcgdHJhbnNmb3JtPSJ0cmFuc2xhdGUoOTguOTc4NTE3ODEyNTAwMTIsIDQ1OC4wMDAwMDE4NzUpIiBjbGFzcz0iZWRnZVRlcm1pbmFscyI+PGcgdHJhbnNmb3JtPSJ0cmFuc2xhdGUoLTIuODg2NzE4NzUsIC02LjUpIiBjbGFzcz0iaW5uZXIiPjx0ZXh0IHN0eWxlPSI7ZGlzcGxheTogaW5saW5lLWJsb2NrIj48dHNwYW4gY2xhc3M9InJvdyIgeD0iMCIgZHk9IjFlbSIgeG1sOnNwYWNlPSJwcmVzZXJ2ZSI+MTwvdHNwYW4+PC90ZXh0PjwvZz48L2c+PGcgdHJhbnNmb3JtPSJ0cmFuc2xhdGUoOTguOTc4NTE3ODEyNTAwMTIsIDc0Ni41MDAwMDE4NzUpIiBjbGFzcz0iZWRnZVRlcm1pbmFscyI+PGcgdHJhbnNmb3JtPSJ0cmFuc2xhdGUoLTIuMDE5NTMxMjUsIC02LjUpIiBjbGFzcz0iaW5uZXIiPjx0ZXh0IHN0eWxlPSI7ZGlzcGxheTogaW5saW5lLWJsb2NrIj48dHNwYW4gY2xhc3M9InJvdyIgeD0iMCIgZHk9IjFlbSIgeG1sOnNwYWNlPSJwcmVzZXJ2ZSI+KjwvdHNwYW4+PC90ZXh0PjwvZz48L2c+PGcgdHJhbnNmb3JtPSJ0cmFuc2xhdGUoNTUzLjczOTkxMjE4OTc0ODIsIDIyMy4wNDM4Mjk3MzkyNjYyNykiIGNsYXNzPSJlZGdlVGVybWluYWxzIj48ZyB0cmFuc2Zvcm09InRyYW5zbGF0ZSgtMi44ODY3MTg3NSwgLTYuNSkiIGNsYXNzPSJpbm5lciI+PHRleHQgc3R5bGU9IjtkaXNwbGF5OiBpbmxpbmUtYmxvY2siPjx0c3BhbiBjbGFzcz0icm93IiB4PSIwIiBkeT0iMWVtIiB4bWw6c3BhY2U9InByZXNlcnZlIj4xPC90c3Bhbj48L3RleHQ+PC9nPjwvZz48ZyB0cmFuc2Zvcm09InRyYW5zbGF0ZSg0ODkuNTMwODQyOTIyNTQyOTQsIDQ2OC4wNzE5NzkwMzQ3MDc3NCkiIGNsYXNzPSJlZGdlVGVybWluYWxzIj48ZyB0cmFuc2Zvcm09InRyYW5zbGF0ZSgtMi44ODY3MTg3NSwgLTYuNSkiIGNsYXNzPSJpbm5lciI+PHRleHQgc3R5bGU9IjtkaXNwbGF5OiBpbmxpbmUtYmxvY2siPjx0c3BhbiBjbGFzcz0icm93IiB4PSIwIiBkeT0iMWVtIiB4bWw6c3BhY2U9InByZXNlcnZlIj4xPC90c3Bhbj48L3RleHQ+PC9nPjwvZz48ZyB0cmFuc2Zvcm09InRyYW5zbGF0ZSg2NTUuNjU1MjQzNjIwODI3NSwgNDg3LjU0ODgxMTg5NTAyOTcpIiBjbGFzcz0iZWRnZVRlcm1pbmFscyI+PGcgdHJhbnNmb3JtPSJ0cmFuc2xhdGUoLTIuODg2NzE4NzUsIC02LjUpIiBjbGFzcz0iaW5uZXIiPjx0ZXh0IHN0eWxlPSI7ZGlzcGxheTogaW5saW5lLWJsb2NrIj48dHNwYW4gY2xhc3M9InJvdyIgeD0iMCIgZHk9IjFlbSIgeG1sOnNwYWNlPSJwcmVzZXJ2ZSI+MTwvdHNwYW4+PC90ZXh0PjwvZz48L2c+PGcgdHJhbnNmb3JtPSJ0cmFuc2xhdGUoNTY2LjI1MDQ2MjIxNjgzMTcsIDE1Ni4xNzMxMzY3NDU0MDYyOCkiIGNsYXNzPSJlZGdlVGVybWluYWxzIj48ZyB0cmFuc2Zvcm09InRyYW5zbGF0ZSgtMi44ODY3MTg3NSwgLTYuNSkiIGNsYXNzPSJpbm5lciI+PHRleHQgc3R5bGU9IjtkaXNwbGF5OiBpbmxpbmUtYmxvY2siPjx0c3BhbiBjbGFzcz0icm93IiB4PSIwIiBkeT0iMWVtIiB4bWw6c3BhY2U9InByZXNlcnZlIj4xPC90c3Bhbj48L3RleHQ+PC9nPjwvZz48ZyB0cmFuc2Zvcm09InRyYW5zbGF0ZSgzNzIuMzA4Njc0OTE4Nzk5MDYsIDE5My42OTUzNzgyMDk0ODQ5NykiIGNsYXNzPSJlZGdlVGVybWluYWxzIj48ZyB0cmFuc2Zvcm09InRyYW5zbGF0ZSgtMi44ODY3MTg3NSwgLTYuNSkiIGNsYXNzPSJpbm5lciI+PHRleHQgc3R5bGU9IjtkaXNwbGF5OiBpbmxpbmUtYmxvY2siPjx0c3BhbiBjbGFzcz0icm93IiB4PSIwIiBkeT0iMWVtIiB4bWw6c3BhY2U9InByZXNlcnZlIj4xPC90c3Bhbj48L3RleHQ+PC9nPjwvZz48ZyB0cmFuc2Zvcm09InRyYW5zbGF0ZSgxMjMuOTc4NTE3ODEyNDk5ODksIDI5OC4wMDAwMDE4NzUpIiBjbGFzcz0iZWRnZVRlcm1pbmFscyI+PGcgdHJhbnNmb3JtPSJ0cmFuc2xhdGUoLTIuODg2NzE4NzUsIC02LjUpIiBjbGFzcz0iaW5uZXIiPjwvZz48dGV4dCBzdHlsZT0iO2Rpc3BsYXk6IGlubGluZS1ibG9jayI+PHRzcGFuIGNsYXNzPSJyb3ciIHg9IjAiIGR5PSIxZW0iIHhtbDpzcGFjZT0icHJlc2VydmUiPjE8L3RzcGFuPjwvdGV4dD48L2c+PGcgdHJhbnNmb3JtPSJ0cmFuc2xhdGUoMTIzLjk3ODUxNzgxMjQ5OTg5LCA1NjIuNTAwMDAxODc1KSIgY2xhc3M9ImVkZ2VUZXJtaW5hbHMiPjxnIHRyYW5zZm9ybT0idHJhbnNsYXRlKC0yLjAxOTUzMTI1LCAtNi41KSIgY2xhc3M9ImlubmVyIj48L2c+PHRleHQgc3R5bGU9IjtkaXNwbGF5OiBpbmxpbmUtYmxvY2siPjx0c3BhbiBjbGFzcz0icm93IiB4PSIwIiBkeT0iMWVtIiB4bWw6c3BhY2U9InByZXNlcnZlIj4qPC90c3Bhbj48L3RleHQ+PC9nPjxnIHRyYW5zZm9ybT0idHJhbnNsYXRlKDEyMy45Nzg1MTc4MTI0OTk4OSwgODAzLjAwMDAwMTg3NSkiIGNsYXNzPSJlZGdlVGVybWluYWxzIj48ZyB0cmFuc2Zvcm09InRyYW5zbGF0ZSgtMi44ODY3MTg3NSwgLTYuNSkiIGNsYXNzPSJpbm5lciI+PC9nPjx0ZXh0IHN0eWxlPSI7ZGlzcGxheTogaW5saW5lLWJsb2NrIj48dHNwYW4gY2xhc3M9InJvdyIgeD0iMCIgZHk9IjFlbSIgeG1sOnNwYWNlPSJwcmVzZXJ2ZSI+MTwvdHNwYW4+PC90ZXh0PjwvZz48ZyB0cmFuc2Zvcm09InRyYW5zbGF0ZSg1OTQuMDAxOTUxNTYyNDk5OCwgMjczLjk5OTk5ODY2MDcxNDI1KSIgY2xhc3M9ImVkZ2VUZXJtaW5hbHMiPjxnIHRyYW5zZm9ybT0idHJhbnNsYXRlKC0yLjAxOTUzMTI1LCAtNi41KSIgY2xhc3M9ImlubmVyIj48L2c+PHRleHQgc3R5bGU9IjtkaXNwbGF5OiBpbmxpbmUtYmxvY2siPjx0c3BhbiBjbGFzcz0icm93IiB4PSIwIiBkeT0iMWVtIiB4bWw6c3BhY2U9InByZXNlcnZlIj4qPC90c3Bhbj48L3RleHQ+PC9nPjxnIHRyYW5zZm9ybT0idHJhbnNsYXRlKDQ3MC44NzMwNDg0Mzc0OTk5LCA1NTAuNTAwMDAxMzM5Mjg1NykiIGNsYXNzPSJlZGdlVGVybWluYWxzIj48ZyB0cmFuc2Zvcm09InRyYW5zbGF0ZSgtMi44ODY3MTg3NSwgLTYuNSkiIGNsYXNzPSJpbm5lciI+PC9nPjx0ZXh0IHN0eWxlPSI7ZGlzcGxheTogaW5saW5lLWJsb2NrIj48dHNwYW4gY2xhc3M9InJvdyIgeD0iMCIgZHk9IjFlbSIgeG1sOnNwYWNlPSJwcmVzZXJ2ZSI+MTwvdHNwYW4+PC90ZXh0PjwvZz48ZyB0cmFuc2Zvcm09InRyYW5zbGF0ZSg3MTcuMTMwODU5Njg3NSwgNTM4LjUwMDAwMDI2Nzg1NzEpIiBjbGFzcz0iZWRnZVRlcm1pbmFscyI+PGcgdHJhbnNmb3JtPSJ0cmFuc2xhdGUoLTIuODg2NzE4NzUsIC02LjUpIiBjbGFzcz0iaW5uZXIiPjwvZz48dGV4dCBzdHlsZT0iO2Rpc3BsYXk6IGlubGluZS1ibG9jayI+PHRzcGFuIGNsYXNzPSJyb3ciIHg9IjAiIGR5PSIxZW0iIHhtbDpzcGFjZT0icHJlc2VydmUiPjE8L3RzcGFuPjwvdGV4dD48L2c+PGcgdHJhbnNmb3JtPSJ0cmFuc2xhdGUoODE4LjkyNTc4MDYyNSwgMjczLjk5OTk5OTQ2NDI4NTc0KSIgY2xhc3M9ImVkZ2VUZXJtaW5hbHMiPjxnIHRyYW5zZm9ybT0idHJhbnNsYXRlKC0yLjAxOTUzMTI1LCAtNi41KSIgY2xhc3M9ImlubmVyIj48L2c+PHRleHQgc3R5bGU9IjtkaXNwbGF5OiBpbmxpbmUtYmxvY2siPjx0c3BhbiBjbGFzcz0icm93IiB4PSIwIiBkeT0iMWVtIiB4bWw6c3BhY2U9InByZXNlcnZlIj4qPC90c3Bhbj48L3RleHQ+PC9nPjxnIHRyYW5zZm9ybT0idHJhbnNsYXRlKDM2My40OTQxNDAzMTI1LCAyNDkuOTk5OTk5NzMyMTQyODcpIiBjbGFzcz0iZWRnZVRlcm1pbmFscyI+PGcgdHJhbnNmb3JtPSJ0cmFuc2xhdGUoLTIuODg2NzE4NzUsIC02LjUpIiBjbGFzcz0iaW5uZXIiPjwvZz48dGV4dCBzdHlsZT0iO2Rpc3BsYXk6IGlubGluZS1ibG9jayI+PHRzcGFuIGNsYXNzPSJyb3ciIHg9IjAiIGR5PSIxZW0iIHhtbDpzcGFjZT0icHJlc2VydmUiPjE8L3RzcGFuPjwvdGV4dD48L2c+PC9nPjxnIGNsYXNzPSJub2RlcyI+PGcgdHJhbnNmb3JtPSJ0cmFuc2xhdGUoNDc1LjM1NDQ5MjE4NzUsIDEwNCkiIGlkPSJjbGFzc0lkLUN1c3RvbWVyLTIzIiBjbGFzcz0ibm9kZSBkZWZhdWx0Ij48ZyBjbGFzcz0iYmFzaWMgbGFiZWwtY29udGFpbmVyIj48cGF0aCBzdHlsZT0iIiBmaWxsPSIjZWVlIiBzdHJva2Utd2lkdGg9IjAiIHN0cm9rZT0ibm9uZSIgZD0iTS04MC4xNTYyNSAtOTYgTDgwLjE1NjI1IC05NiBMODAuMTU2MjUgOTYgTC04MC4xNTYyNSA5NiI+PC9wYXRoPjxwYXRoIHN0eWxlPSIiIGZpbGw9Im5vbmUiIHN0cm9rZS13aWR0aD0iMS4zIiBzdHJva2U9IiM5OTkiIGQ9Ik0tODAuMTU2MjUgLTk2IEMtMzUuNTc2NjAwNzM0MzY1NzkgLTk2LCA5LjAwMzA0ODUzMTI2ODQyIC05NiwgODAuMTU2MjUgLTk2IE0tODAuMTU2MjUgLTk2IEMtNDAuNzIwOTg3MTc3MDcyMDI2IC05NiwgLTEuMjg1NzI0MzU0MTQ0MDUxIC05NiwgODAuMTU2MjUgLTk2IE04MC4xNTYyNSAtOTYgQzgwLjE1NjI1IC0zOC45ODI4Nzc3MzE4MDQ4OCwgODAuMTU2MjUgMTguMDM0MjQ0NTM2MzkwMjQ3LCA4MC4xNTYyNSA5NiBNODAuMTU2MjUgLTk2IEM4MC4xNTYyNSAtNDkuNDE2ODQ0MDc3NDkxNDI2LCA4MC4xNTYyNSAtMi44MzM2ODgxNTQ5ODI4NTIsIDgwLjE1NjI1IDk2IE04MC4xNTYyNSA5NiBDNDIuMzUzNTMwNTI4MTAyODEgOTYsIDQuNTUwODExMDU2MjA1NjE3IDk2LCAtODAuMTU2MjUgOTYgTTgwLjE1NjI1IDk2IEM0Ny44ODUyNTQzMjY3Nzk2MyA5NiwgMTUuNjE0MjU4NjUzNTU5MjYxIDk2LCAtODAuMTU2MjUgOTYgTS04MC4xNTYyNSA5NiBDLTgwLjE1NjI1IDM4Ljg5NDM5NjA2MzMwOTMxNiwgLTgwLjE1NjI1IC0xOC4yMTEyMDc4NzMzODEzNywgLTgwLjE1NjI1IC05NiBNLTgwLjE1NjI1IDk2IEMtODAuMTU2MjUgMjAuMTU0NDM3MTAwOTA0OTg1LCAtODAuMTU2MjUgLTU1LjY5MTEyNTc5ODE5MDAzLCAtODAuMTU2MjUgLTk2Ij48L3BhdGg+PC9nPjxnIHRyYW5zZm9ybT0idHJhbnNsYXRlKDAsIC03MikiIGNsYXNzPSJhbm5vdGF0aW9uLWdyb3VwIHRleHQiPjwvZz48ZyB0cmFuc2Zvcm09InRyYW5zbGF0ZSgtMzUuNjU2MjUsIC03MikiIGNsYXNzPSJsYWJlbC1ncm91cCB0ZXh0Ij48ZyB0cmFuc2Zvcm09InRyYW5zbGF0ZSgwLC0xMikiIHN0eWxlPSJmb250LXdlaWdodDogYm9sZGVyIiBjbGFzcz0ibGFiZWwiPjxmb3JlaWduT2JqZWN0IGhlaWdodD0iMjQiIHdpZHRoPSI3MS4zMTI1Ij48ZGl2IHN0eWxlPSJkaXNwbGF5OiB0YWJsZS1jZWxsOyB3aGl0ZS1zcGFjZTogbm93cmFwOyBsaW5lLWhlaWdodDogMS41OyBtYXgtd2lkdGg6IDExOXB4OyB0ZXh0LWFsaWduOiBjZW50ZXI7IiB4bWxucz0iaHR0cDovL3d3dy53My5vcmcvMTk5OS94aHRtbCI+PHNwYW4gc3R5bGU9IiIgY2xhc3M9Im5vZGVMYWJlbCBtYXJrZG93bi1ub2RlLWxhYmVsIj48cD5DdXN0b21lcjwvcD48L3NwYW4+PC9kaXY+PC9mb3JlaWduT2JqZWN0PjwvZz48L2c+PGcgdHJhbnNmb3JtPSJ0cmFuc2xhdGUoLTY4LjE1NjI1LCAtMjQpIiBjbGFzcz0ibWVtYmVycy1ncm91cCB0ZXh0Ij48ZyB0cmFuc2Zvcm09InRyYW5zbGF0ZSgwLC0xMikiIHN0eWxlPSIiIGNsYXNzPSJsYWJlbCI+PGZvcmVpZ25PYmplY3QgaGVpZ2h0PSIyNCIgd2lkdGg9IjQ5LjY5NTMxMjUiPjxkaXYgc3R5bGU9ImRpc3BsYXk6IHRhYmxlLWNlbGw7IHdoaXRlLXNwYWNlOiBub3dyYXA7IGxpbmUtaGVpZ2h0OiAxLjU7IG1heC13aWR0aDogMTAzcHg7IHRleHQtYWxpZ246IGNlbnRlcjsiIHhtbG5zPSJodHRwOi8vd3d3LnczLm9yZy8xOTk5L3hodG1sIj48c3BhbiBzdHlsZT0iIiBjbGFzcz0ibm9kZUxhYmVsIG1hcmtkb3duLW5vZGUtbGFiZWwiPjxwPi1pZDogaW50PC9wPjwvc3Bhbj48L2Rpdj48L2ZvcmVpZ25PYmplY3Q+PC9nPjxnIHRyYW5zZm9ybT0idHJhbnNsYXRlKDAsMTIpIiBzdHlsZT0iIiBjbGFzcz0ibGFiZWwiPjxmb3JlaWduT2JqZWN0IGhlaWdodD0iMjQiIHdpZHRoPSI5Ni4xMDE1NjI1Ij48ZGl2IHN0eWxlPSJkaXNwbGF5OiB0YWJsZS1jZWxsOyB3aGl0ZS1zcGFjZTogbm93cmFwOyBsaW5lLWhlaWdodDogMS41OyBtYXgtd2lkdGg6IDE1MHB4OyB0ZXh0LWFsaWduOiBjZW50ZXI7IiB4bWxucz0iaHR0cDovL3d3dy53My5vcmcvMTk5OS94aHRtbCI+PHNwYW4gc3R5bGU9IiIgY2xhc3M9Im5vZGVMYWJlbCBtYXJrZG93bi1ub2RlLWxhYmVsIj48cD4tbmFtZTogc3RyaW5nPC9wPjwvc3Bhbj48L2Rpdj48L2ZvcmVpZ25PYmplY3Q+PC9nPjxnIHRyYW5zZm9ybT0idHJhbnNsYXRlKDAsMzYpIiBzdHlsZT0iIiBjbGFzcz0ibGFiZWwiPjxmb3JlaWduT2JqZWN0IGhlaWdodD0iMjQiIHdpZHRoPSI5Ni42NDA2MjUiPjxkaXYgc3R5bGU9ImRpc3BsYXk6IHRhYmxlLWNlbGw7IHdoaXRlLXNwYWNlOiBub3dyYXA7IGxpbmUtaGVpZ2h0OiAxLjU7IG1heC13aWR0aDogMTQ5cHg7IHRleHQtYWxpZ246IGNlbnRlcjsiIHhtbG5zPSJodHRwOi8vd3d3LnczLm9yZy8xOTk5L3hodG1sIj48c3BhbiBzdHlsZT0iIiBjbGFzcz0ibm9kZUxhYmVsIG1hcmtkb3duLW5vZGUtbGFiZWwiPjxwPi1lbWFpbDogc3RyaW5nPC9wPjwvc3Bhbj48L2Rpdj48L2ZvcmVpZ25PYmplY3Q+PC9nPjxnIHRyYW5zZm9ybT0idHJhbnNsYXRlKDAsNjApIiBzdHlsZT0iIiBjbGFzcz0ibGFiZWwiPjxmb3JlaWduT2JqZWN0IGhlaWdodD0iMjQiIHdpZHRoPSIxMDAuNjU2MjUiPjxkaXYgc3R5bGU9ImRpc3BsYXk6IHRhYmxlLWNlbGw7IHdoaXRlLXNwYWNlOiBub3dyYXA7IGxpbmUtaGVpZ2h0OiAxLjU7IG1heC13aWR0aDogMTU2cHg7IHRleHQtYWxpZ246IGNlbnRlcjsiIHhtbG5zPSJodHRwOi8vd3d3LnczLm9yZy8xOTk5L3hodG1sIj48c3BhbiBzdHlsZT0iIiBjbGFzcz0ibm9kZUxhYmVsIG1hcmtkb3duLW5vZGUtbGFiZWwiPjxwPi1waG9uZTogc3RyaW5nPC9wPjwvc3Bhbj48L2Rpdj48L2ZvcmVpZ25PYmplY3Q+PC9nPjwvZz48ZyB0cmFuc2Zvcm09InRyYW5zbGF0ZSgtNjguMTU2MjUsIDk2KSIgY2xhc3M9Im1ldGhvZHMtZ3JvdXAgdGV4dCI+PC9nPjxnIHN0eWxlPSIiIGNsYXNzPSJkaXZpZGVyIj48cGF0aCBzdHlsZT0iIiBmaWxsPSJub25lIiBzdHJva2Utd2lkdGg9IjEuMyIgc3Ryb2tlPSIjOTk5IiBkPSJNLTgwLjE1NjI1IC00OCBDLTM5LjA3MjQwODYzMjk4NDY2IC00OCwgMi4wMTE0MzI3MzQwMzA2NzcyIC00OCwgODAuMTU2MjUgLTQ4IE0tODAuMTU2MjUgLTQ4IEMtMjYuNjI4OTQyNDE1NDk4NjYzIC00OCwgMjYuODk4MzY1MTY5MDAyNjczIC00OCwgODAuMTU2MjUgLTQ4Ij48L3BhdGg+PC9nPjxnIHN0eWxlPSIiIGNsYXNzPSJkaXZpZGVyIj48cGF0aCBzdHlsZT0iIiBmaWxsPSJub25lIiBzdHJva2Utd2lkdGg9IjEuMyIgc3Ryb2tlPSIjOTk5IiBkPSJNLTgwLjE1NjI1IDcyIEMtMzUuNjQzMDk1Njg2MzU1NTUgNzIsIDguODcwMDU4NjI3Mjg4ODk4IDcyLCA4MC4xNTYyNSA3MiBNLTgwLjE1NjI1IDcyIEMtNDUuNTIzMDM1NzY0MjgzMTggNzIsIC0xMC44ODk4MjE1Mjg1NjYzNTggNzIsIDgwLjE1NjI1IDcyIj48L3BhdGg+PC9nPjwvZz48ZyB0cmFuc2Zvcm09InRyYW5zbGF0ZSgxMTMuOTc4NTE1NjI1LCA5MjEuNSkiIGlkPSJjbGFzc0lkLVByb2R1Y3QtMjQiIGNsYXNzPSJub2RlIGRlZmF1bHQiPjxnIGNsYXNzPSJiYXNpYyBsYWJlbC1jb250YWluZXIiPjxwYXRoIHN0eWxlPSIiIGZpbGw9IiNlZWUiIHN0cm9rZS13aWR0aD0iMCIgc3Ryb2tlPSJub25lIiBkPSJNLTk1LjA5NTcwMzEyNSAtOTYgTDk1LjA5NTcwMzEyNSAtOTYgTDk1LjA5NTcwMzEyNSA5NiBMLTk1LjA5NTcwMzEyNSA5NiI+PC9wYXRoPjxwYXRoIHN0eWxlPSIiIGZpbGw9Im5vbmUiIHN0cm9rZS13aWR0aD0iMS4zIiBzdHJva2U9IiM5OTkiIGQ9Ik0tOTUuMDk1NzAzMTI1IC05NiBDLTU0LjkzNDU4NTk4NDc5MDYgLTk2LCAtMTQuNzczNDY4ODQ0NTgxMjAzIC05NiwgOTUuMDk1NzAzMTI1IC05NiBNLTk1LjA5NTcwMzEyNSAtOTYgQy00OS44ODM1OTA1NTE3NTAwNSAtOTYsIC00LjY3MTQ3Nzk3ODUwMDEwNyAtOTYsIDk1LjA5NTcwMzEyNSAtOTYgTTk1LjA5NTcwMzEyNSAtOTYgQzk1LjA5NTcwMzEyNSAtNDQuNDAzMDMzMzQ3Njk4MDcsIDk1LjA5NTcwMzEyNSA3LjE5MzkzMzMwNDYwMzg2LCA5NS4wOTU3MDMxMjUgOTYgTTk1LjA5NTcwMzEyNSAtOTYgQzk1LjA5NTcwMzEyNSAtNDIuNDg1ODEzMzE1Njk4ODYsIDk1LjA5NTcwMzEyNSAxMS4wMjgzNzMzNjg2MDIyNzQsIDk1LjA5NTcwMzEyNSA5NiBNOTUuMDk1NzAzMTI1IDk2IEMzMS4xODAzMDA0NTE0NTA5OTYgOTYsIC0zMi43MzUxMDIyMjIwOTgwMSA5NiwgLTk1LjA5NTcwMzEyNSA5NiBNOTUuMDk1NzAzMTI1IDk2IEM1MS4yODk3OTg3NzA5NjkyOSA5NiwgNy40ODM4OTQ0MTY5Mzg1ODMgOTYsIC05NS4wOTU3MDMxMjUgOTYgTS05NS4wOTU3MDMxMjUgOTYgQy05NS4wOTU3MDMxMjUgNDEuMTI3OTI5NDQ1MTk3NDksIC05NS4wOTU3MDMxMjUgLTEzLjc0NDE0MTEwOTYwNTAyNSwgLTk1LjA5NTcwMzEyNSAtOTYgTS05NS4wOTU3MDMxMjUgOTYgQy05NS4wOTU3MDMxMjUgMjMuOTAwNTIwNDc4MTUzMTEyLCAtOTUuMDk1NzAzMTI1IC00OC4xOTg5NTkwNDM2OTM3NzYsIC05NS4wOTU3MDMxMjUgLTk2Ij48L3BhdGg+PC9nPjxnIHRyYW5zZm9ybT0idHJhbnNsYXRlKDAsIC03MikiIGNsYXNzPSJhbm5vdGF0aW9uLWdyb3VwIHRleHQiPjwvZz48ZyB0cmFuc2Zvcm09InRyYW5zbGF0ZSgtMjkuMjc3MzQzNzUsIC03MikiIGNsYXNzPSJsYWJlbC1ncm91cCB0ZXh0Ij48ZyB0cmFuc2Zvcm09InRyYW5zbGF0ZSgwLC0xMikiIHN0eWxlPSJmb250LXdlaWdodDogYm9sZGVyIiBjbGFzcz0ibGFiZWwiPjxmb3JlaWduT2JqZWN0IGhlaWdodD0iMjQiIHdpZHRoPSI1OC41NTQ2ODc1Ij48ZGl2IHN0eWxlPSJkaXNwbGF5OiB0YWJsZS1jZWxsOyB3aGl0ZS1zcGFjZTogbm93cmFwOyBsaW5lLWhlaWdodDogMS41OyBtYXgtd2lkdGg6IDEwNXB4OyB0ZXh0LWFsaWduOiBjZW50ZXI7IiB4bWxucz0iaHR0cDovL3d3dy53My5vcmcvMTk5OS94aHRtbCI+PHNwYW4gc3R5bGU9IiIgY2xhc3M9Im5vZGVMYWJlbCBtYXJrZG93bi1ub2RlLWxhYmVsIj48cD5Qcm9kdWN0PC9wPjwvc3Bhbj48L2Rpdj48L2ZvcmVpZ25PYmplY3Q+PC9nPjwvZz48ZyB0cmFuc2Zvcm09InRyYW5zbGF0ZSgtODMuMDk1NzAzMTI1LCAtMjQpIiBjbGFzcz0ibWVtYmVycy1ncm91cCB0ZXh0Ij48ZyB0cmFuc2Zvcm09InRyYW5zbGF0ZSgwLC0xMikiIHN0eWxlPSIiIGNsYXNzPSJsYWJlbCI+PGZvcmVpZ25PYmplY3QgaGVpZ2h0PSIyNCIgd2lkdGg9IjQ5LjY5NTMxMjUiPjxkaXYgc3R5bGU9ImRpc3BsYXk6IHRhYmxlLWNlbGw7IHdoaXRlLXNwYWNlOiBub3dyYXA7IGxpbmUtaGVpZ2h0OiAxLjU7IG1heC13aWR0aDogMTAzcHg7IHRleHQtYWxpZ246IGNlbnRlcjsiIHhtbG5zPSJodHRwOi8vd3d3LnczLm9yZy8xOTk5L3hodG1sIj48c3BhbiBzdHlsZT0iIiBjbGFzcz0ibm9kZUxhYmVsIG1hcmtkb3duLW5vZGUtbGFiZWwiPjxwPi1pZDogaW50PC9wPjwvc3Bhbj48L2Rpdj48L2ZvcmVpZ25PYmplY3Q+PC9nPjxnIHRyYW5zZm9ybT0idHJhbnNsYXRlKDAsMTIpIiBzdHlsZT0iIiBjbGFzcz0ibGFiZWwiPjxmb3JlaWduT2JqZWN0IGhlaWdodD0iMjQiIHdpZHRoPSI5Ni4xMDE1NjI1Ij48ZGl2IHN0eWxlPSJkaXNwbGF5OiB0YWJsZS1jZWxsOyB3aGl0ZS1zcGFjZTogbm93cmFwOyBsaW5lLWhlaWdodDogMS41OyBtYXgtd2lkdGg6IDE1MHB4OyB0ZXh0LWFsaWduOiBjZW50ZXI7IiB4bWxucz0iaHR0cDovL3d3dy53My5vcmcvMTk5OS94aHRtbCI+PHNwYW4gc3R5bGU9IiIgY2xhc3M9Im5vZGVMYWJlbCBtYXJrZG93bi1ub2RlLWxhYmVsIj48cD4tbmFtZTogc3RyaW5nPC9wPjwvc3Bhbj48L2Rpdj48L2ZvcmVpZ25PYmplY3Q+PC9nPjxnIHRyYW5zZm9ybT0idHJhbnNsYXRlKDAsMzYpIiBzdHlsZT0iIiBjbGFzcz0ibGFiZWwiPjxmb3JlaWduT2JqZWN0IGhlaWdodD0iMjQiIHdpZHRoPSIxMzYuOTE0MDYyNSI+PGRpdiBzdHlsZT0iZGlzcGxheTogdGFibGUtY2VsbDsgd2hpdGUtc3BhY2U6IG5vd3JhcDsgbGluZS1oZWlnaHQ6IDEuNTsgbWF4LXdpZHRoOiAxODlweDsgdGV4dC1hbGlnbjogY2VudGVyOyIgeG1sbnM9Imh0dHA6Ly93d3cudzMub3JnLzE5OTkveGh0bWwiPjxzcGFuIHN0eWxlPSIiIGNsYXNzPSJub2RlTGFiZWwgbWFya2Rvd24tbm9kZS1sYWJlbCI+PHA+LWRlc2NyaXB0aW9uOiBzdHJpbmc8L3A+PC9zcGFuPjwvZGl2PjwvZm9yZWlnbk9iamVjdD48L2c+PGcgdHJhbnNmb3JtPSJ0cmFuc2xhdGUoMCw2MCkiIHN0eWxlPSIiIGNsYXNzPSJsYWJlbCI+PGZvcmVpZ25PYmplY3QgaGVpZ2h0PSIyNCIgd2lkdGg9Ijg2Ljg4MjgxMjUiPjxkaXYgc3R5bGU9ImRpc3BsYXk6IHRhYmxlLWNlbGw7IHdoaXRlLXNwYWNlOiBub3dyYXA7IGxpbmUtaGVpZ2h0OiAxLjU7IG1heC13aWR0aDogMTM3cHg7IHRleHQtYWxpZ246IGNlbnRlcjsiIHhtbG5zPSJodHRwOi8vd3d3LnczLm9yZy8xOTk5L3hodG1sIj48c3BhbiBzdHlsZT0iIiBjbGFzcz0ibm9kZUxhYmVsIG1hcmtkb3duLW5vZGUtbGFiZWwiPjxwPi1wcmljZTogZmxvYXQ8L3A+PC9zcGFuPjwvZGl2PjwvZm9yZWlnbk9iamVjdD48L2c+PC9nPjxnIHRyYW5zZm9ybT0idHJhbnNsYXRlKC04My4wOTU3MDMxMjUsIDk2KSIgY2xhc3M9Im1ldGhvZHMtZ3JvdXAgdGV4dCI+PC9nPjxnIHN0eWxlPSIiIGNsYXNzPSJkaXZpZGVyIj48cGF0aCBzdHlsZT0iIiBmaWxsPSJub25lIiBzdHJva2Utd2lkdGg9IjEuMyIgc3Ryb2tlPSIjOTk5IiBkPSJNLTk1LjA5NTcwMzEyNSAtNDggQy0zNC43MjE0MjcwOTQ0ODY2NCAtNDgsIDI1LjY1Mjg0ODkzNjAyNjcxNCAtNDgsIDk1LjA5NTcwMzEyNSAtNDggTS05NS4wOTU3MDMxMjUgLTQ4IEMtMzkuOTYyOTg5ODI4NjA2MzIgLTQ4LCAxNS4xNjk3MjM0Njc3ODczNjQgLTQ4LCA5NS4wOTU3MDMxMjUgLTQ4Ij48L3BhdGg+PC9nPjxnIHN0eWxlPSIiIGNsYXNzPSJkaXZpZGVyIj48cGF0aCBzdHlsZT0iIiBmaWxsPSJub25lIiBzdHJva2Utd2lkdGg9IjEuMyIgc3Ryb2tlPSIjOTk5IiBkPSJNLTk1LjA5NTcwMzEyNSA3MiBDLTQ2LjAxMDY0ODkyMzQ2OTAzNCA3MiwgMy4wNzQ0MDUyNzgwNjE5MzEzIDcyLCA5NS4wOTU3MDMxMjUgNzIgTS05NS4wOTU3MDMxMjUgNzIgQy00NC4xMDIzODAyNjMxOTEwMyA3MiwgNi44OTA5NDI1OTg2MTc5NCA3MiwgOTUuMDk1NzAzMTI1IDcyIj48L3BhdGg+PC9nPjwvZz48ZyB0cmFuc2Zvcm09InRyYW5zbGF0ZSg1ODQuMDAxOTUzMTI1LCAzODAuNSkiIGlkPSJjbGFzc0lkLU9yZGVyLTI1IiBjbGFzcz0ibm9kZSBkZWZhdWx0Ij48ZyBjbGFzcz0iYmFzaWMgbGFiZWwtY29udGFpbmVyIj48cGF0aCBzdHlsZT0iIiBmaWxsPSIjZWVlIiBzdHJva2Utd2lkdGg9IjAiIHN0cm9rZT0ibm9uZSIgZD0iTS04My43NTc4MTI1IC04NCBMODMuNzU3ODEyNSAtODQgTDgzLjc1NzgxMjUgODQgTC04My43NTc4MTI1IDg0Ij48L3BhdGg+PHBhdGggc3R5bGU9IiIgZmlsbD0ibm9uZSIgc3Ryb2tlLXdpZHRoPSIxLjMiIHN0cm9rZT0iIzk5OSIgZD0iTS04My43NTc4MTI1IC04NCBDLTIxLjI2ODUzOTY4MDk2MTIyIC04NCwgNDEuMjIwNzMzMTM4MDc3NTYgLTg0LCA4My43NTc4MTI1IC04NCBNLTgzLjc1NzgxMjUgLTg0IEMtNDkuNTU4NTA1ODU4NTgwODYgLTg0LCAtMTUuMzU5MTk5MjE3MTYxNzE2IC04NCwgODMuNzU3ODEyNSAtODQgTTgzLjc1NzgxMjUgLTg0IEM4My43NTc4MTI1IC00MC41MzMzNjQ0NjYzNzIwOCwgODMuNzU3ODEyNSAyLjkzMzI3MTA2NzI1NTg0NSwgODMuNzU3ODEyNSA4NCBNODMuNzU3ODEyNSAtODQgQzgzLjc1NzgxMjUgLTI4Ljg3ODUzNzY4NTU2MzQ1OCwgODMuNzU3ODEyNSAyNi4yNDI5MjQ2Mjg4NzMwODQsIDgzLjc1NzgxMjUgODQgTTgzLjc1NzgxMjUgODQgQzE5Ljc3Mjg2ODc1MDI0OTEzIDg0LCAtNDQuMjEyMDc0OTk5NTAxNzQgODQsIC04My43NTc4MTI1IDg0IE04My43NTc4MTI1IDg0IEMzMS42NTE2Mzk1NTcxNjg0MTYgODQsIC0yMC40NTQ1MzMzODU2NjMxNyA4NCwgLTgzLjc1NzgxMjUgODQgTS04My43NTc4MTI1IDg0IEMtODMuNzU3ODEyNSA0My4wMjcxOTk0ODE2OTI2MiwgLTgzLjc1NzgxMjUgMi4wNTQzOTg5NjMzODUyMzksIC04My43NTc4MTI1IC04NCBNLTgzLjc1NzgxMjUgODQgQy04My43NTc4MTI1IDMxLjU0NTE4NTU3Mzk0MzYsIC04My43NTc4MTI1IC0yMC45MDk2Mjg4NTIxMTI4MDMsIC04My43NTc4MTI1IC04NCI+PC9wYXRoPjwvZz48ZyB0cmFuc2Zvcm09InRyYW5zbGF0ZSgwLCAtNjApIiBjbGFzcz0iYW5ub3RhdGlvbi1ncm91cCB0ZXh0Ij48L2c+PGcgdHJhbnNmb3JtPSJ0cmFuc2xhdGUoLTIxLjcwMzEyNSwgLTYwKSIgY2xhc3M9ImxhYmVsLWdyb3VwIHRleHQiPjxnIHRyYW5zZm9ybT0idHJhbnNsYXRlKDAsLTEyKSIgc3R5bGU9ImZvbnQtd2VpZ2h0OiBib2xkZXIiIGNsYXNzPSJsYWJlbCI+PGZvcmVpZ25PYmplY3QgaGVpZ2h0PSIyNCIgd2lkdGg9IjQzLjQwNjI1Ij48ZGl2IHN0eWxlPSJkaXNwbGF5OiB0YWJsZS1jZWxsOyB3aGl0ZS1zcGFjZTogbm93cmFwOyBsaW5lLWhlaWdodDogMS41OyBtYXgtd2lkdGg6IDkxcHg7IHRleHQtYWxpZ246IGNlbnRlcjsiIHhtbG5zPSJodHRwOi8vd3d3LnczLm9yZy8xOTk5L3hodG1sIj48c3BhbiBzdHlsZT0iIiBjbGFzcz0ibm9kZUxhYmVsIG1hcmtkb3duLW5vZGUtbGFiZWwiPjxwPk9yZGVyPC9wPjwvc3Bhbj48L2Rpdj48L2ZvcmVpZ25PYmplY3Q+PC9nPjwvZz48ZyB0cmFuc2Zvcm09InRyYW5zbGF0ZSgtNzEuNzU3ODEyNSwgLTEyKSIgY2xhc3M9Im1lbWJlcnMtZ3JvdXAgdGV4dCI+PGcgdHJhbnNmb3JtPSJ0cmFuc2xhdGUoMCwtMTIpIiBzdHlsZT0iIiBjbGFzcz0ibGFiZWwiPjxmb3JlaWduT2JqZWN0IGhlaWdodD0iMjQiIHdpZHRoPSI0OS42OTUzMTI1Ij48ZGl2IHN0eWxlPSJkaXNwbGF5OiB0YWJsZS1jZWxsOyB3aGl0ZS1zcGFjZTogbm93cmFwOyBsaW5lLWhlaWdodDogMS41OyBtYXgtd2lkdGg6IDEwM3B4OyB0ZXh0LWFsaWduOiBjZW50ZXI7IiB4bWxucz0iaHR0cDovL3d3dy53My5vcmcvMTk5OS94aHRtbCI+PHNwYW4gc3R5bGU9IiIgY2xhc3M9Im5vZGVMYWJlbCBtYXJrZG93bi1ub2RlLWxhYmVsIj48cD4taWQ6IGludDwvcD48L3NwYW4+PC9kaXY+PC9mb3JlaWduT2JqZWN0PjwvZz48ZyB0cmFuc2Zvcm09InRyYW5zbGF0ZSgwLDEyKSIgc3R5bGU9IiIgY2xhc3M9ImxhYmVsIj48Zm9yZWlnbk9iamVjdCBoZWlnaHQ9IjI0IiB3aWR0aD0iMTIxLjgxMjUiPjxkaXYgc3R5bGU9ImRpc3BsYXk6IHRhYmxlLWNlbGw7IHdoaXRlLXNwYWNlOiBub3dyYXA7IGxpbmUtaGVpZ2h0OiAxLjU7IG1heC13aWR0aDogMTc1cHg7IHRleHQtYWxpZ246IGNlbnRlcjsiIHhtbG5zPSJodHRwOi8vd3d3LnczLm9yZy8xOTk5L3hodG1sIj48c3BhbiBzdHlsZT0iIiBjbGFzcz0ibm9kZUxhYmVsIG1hcmtkb3duLW5vZGUtbGFiZWwiPjxwPi1vcmRlckRhdGU6IERhdGU8L3A+PC9zcGFuPjwvZGl2PjwvZm9yZWlnbk9iamVjdD48L2c+PGcgdHJhbnNmb3JtPSJ0cmFuc2xhdGUoMCwzNikiIHN0eWxlPSIiIGNsYXNzPSJsYWJlbCI+PGZvcmVpZ25PYmplY3QgaGVpZ2h0PSIyNCIgd2lkdGg9Ijk5LjczNDM3NSI+PGRpdiBzdHlsZT0iZGlzcGxheTogdGFibGUtY2VsbDsgd2hpdGUtc3BhY2U6IG5vd3JhcDsgbGluZS1oZWlnaHQ6IDEuNTsgbWF4LXdpZHRoOiAxNTNweDsgdGV4dC1hbGlnbjogY2VudGVyOyIgeG1sbnM9Imh0dHA6Ly93d3cudzMub3JnLzE5OTkveGh0bWwiPjxzcGFuIHN0eWxlPSIiIGNsYXNzPSJub2RlTGFiZWwgbWFya2Rvd24tbm9kZS1sYWJlbCI+PHA+LXN0YXR1czogc3RyaW5nPC9wPjwvc3Bhbj48L2Rpdj48L2ZvcmVpZ25PYmplY3Q+PC9nPjwvZz48ZyB0cmFuc2Zvcm09InRyYW5zbGF0ZSgtNzEuNzU3ODEyNSwgODQpIiBjbGFzcz0ibWV0aG9kcy1ncm91cCB0ZXh0Ij48L2c+PGcgc3R5bGU9IiIgY2xhc3M9ImRpdmlkZXIiPjxwYXRoIHN0eWxlPSIiIGZpbGw9Im5vbmUiIHN0cm9rZS13aWR0aD0iMS4zIiBzdHJva2U9IiM5OTkiIGQ9Ik0tODMuNzU3ODEyNSAtMzYgQy0yMy44ODY3NjYwODAzOTk3ODggLTM2LCAzNS45ODQyODAzMzkyMDA0MjQgLTM2LCA4My43NTc4MTI1IC0zNiBNLTgzLjc1NzgxMjUgLTM2IEMtMzkuOTE4MzI2OTgxNjI4MDU2IC0zNiwgMy45MjExNTg1MzY3NDM4ODg2IC0zNiwgODMuNzU3ODEyNSAtMzYiPjwvcGF0aD48L2c+PGcgc3R5bGU9IiIgY2xhc3M9ImRpdmlkZXIiPjxwYXRoIHN0eWxlPSIiIGZpbGw9Im5vbmUiIHN0cm9rZS13aWR0aD0iMS4zIiBzdHJva2U9IiM5OTkiIGQ9Ik0tODMuNzU3ODEyNSA2MCBDLTI4LjEyNDM3ODc3Njk1NzU1IDYwLCAyNy41MDkwNTQ5NDYwODQ5MDIgNjAsIDgzLjc1NzgxMjUgNjAgTS04My43NTc4MTI1IDYwIEMtMjMuMjg5NzU2NDE0MTM4NzY1IDYwLCAzNy4xNzgyOTk2NzE3MjI0NyA2MCwgODMuNzU3ODEyNSA2MCI+PC9wYXRoPjwvZz48L2c+PGcgdHJhbnNmb3JtPSJ0cmFuc2xhdGUoMTEzLjk3ODUxNTYyNSwgNjU3KSIgaWQ9ImNsYXNzSWQtT3JkZXJJdGVtLTI2IiBjbGFzcz0ibm9kZSBkZWZhdWx0Ij48ZyBjbGFzcz0iYmFzaWMgbGFiZWwtY29udGFpbmVyIj48cGF0aCBzdHlsZT0iIiBmaWxsPSIjZWVlIiBzdHJva2Utd2lkdGg9IjAiIHN0cm9rZT0ibm9uZSIgZD0iTS05MS41NTY2NDA2MjUgLTcyIEw5MS41NTY2NDA2MjUgLTcyIEw5MS41NTY2NDA2MjUgNzIgTC05MS41NTY2NDA2MjUgNzIiPjwvcGF0aD48cGF0aCBzdHlsZT0iIiBmaWxsPSJub25lIiBzdHJva2Utd2lkdGg9IjEuMyIgc3Ryb2tlPSIjOTk5IiBkPSJNLTkxLjU1NjY0MDYyNSAtNzIgQy00MS44MTY1NTAyMTkyODY1NiAtNzIsIDcuOTIzNTQwMTg2NDI2ODc3IC03MiwgOTEuNTU2NjQwNjI1IC03MiBNLTkxLjU1NjY0MDYyNSAtNzIgQy00My4xNTUyNjUzNjkyMTUxMiAtNzIsIDUuMjQ2MTA5ODg2NTY5NzU1IC03MiwgOTEuNTU2NjQwNjI1IC03MiBNOTEuNTU2NjQwNjI1IC03MiBDOTEuNTU2NjQwNjI1IC0yMy43ODMxMDYzMDcyMzUzMTUsIDkxLjU1NjY0MDYyNSAyNC40MzM3ODczODU1MjkzNywgOTEuNTU2NjQwNjI1IDcyIE05MS41NTY2NDA2MjUgLTcyIEM5MS41NTY2NDA2MjUgLTMzLjkyMzEyNzcwNjYzNTk4LCA5MS41NTY2NDA2MjUgNC4xNTM3NDQ1ODY3MjgwMzgsIDkxLjU1NjY0MDYyNSA3MiBNOTEuNTU2NjQwNjI1IDcyIEM0My40MDc3OTg4Njk4MjE1MyA3MiwgLTQuNzQxMDQyODg1MzU2OTQ3IDcyLCAtOTEuNTU2NjQwNjI1IDcyIE05MS41NTY2NDA2MjUgNzIgQzQ4LjM4OTUzODMwODA2NzUyIDcyLCA1LjIyMjQzNTk5MTEzNTA0MyA3MiwgLTkxLjU1NjY0MDYyNSA3MiBNLTkxLjU1NjY0MDYyNSA3MiBDLTkxLjU1NjY0MDYyNSAyMC4zNjMxMzUxOTQ3NTkxNTMsIC05MS41NTY2NDA2MjUgLTMxLjI3MzcyOTYxMDQ4MTY5NSwgLTkxLjU1NjY0MDYyNSAtNzIgTS05MS41NTY2NDA2MjUgNzIgQy05MS41NTY2NDA2MjUgNDEuNTk4NDUwNDE0ODU4NTksIC05MS41NTY2NDA2MjUgMTEuMTk2OTAwODI5NzE3MTczLCAtOTEuNTU2NjQwNjI1IC03MiI+PC9wYXRoPjwvZz48ZyB0cmFuc2Zvcm09InRyYW5zbGF0ZSgwLCAtNDgpIiBjbGFzcz0iYW5ub3RhdGlvbi1ncm91cCB0ZXh0Ij48L2c+PGcgdHJhbnNmb3JtPSJ0cmFuc2xhdGUoLTM4LjU3NDIxODc1LCAtNDgpIiBjbGFzcz0ibGFiZWwtZ3JvdXAgdGV4dCI+PGcgdHJhbnNmb3JtPSJ0cmFuc2xhdGUoMCwtMTIpIiBzdHlsZT0iZm9udC13ZWlnaHQ6IGJvbGRlciIgY2xhc3M9ImxhYmVsIj48Zm9yZWlnbk9iamVjdCBoZWlnaHQ9IjI0IiB3aWR0aD0iNzcuMTQ4NDM3NSI+PGRpdiBzdHlsZT0iZGlzcGxheTogdGFibGUtY2VsbDsgd2hpdGUtc3BhY2U6IG5vd3JhcDsgbGluZS1oZWlnaHQ6IDEuNTsgbWF4LXdpZHRoOiAxMjNweDsgdGV4dC1hbGlnbjogY2VudGVyOyIgeG1sbnM9Imh0dHA6Ly93d3cudzMub3JnLzE5OTkveGh0bWwiPjxzcGFuIHN0eWxlPSIiIGNsYXNzPSJub2RlTGFiZWwgbWFya2Rvd24tbm9kZS1sYWJlbCI+PHA+T3JkZXJJdGVtPC9wPjwvc3Bhbj48L2Rpdj48L2ZvcmVpZ25PYmplY3Q+PC9nPjwvZz48ZyB0cmFuc2Zvcm09InRyYW5zbGF0ZSgtNzkuNTU2NjQwNjI1LCAwKSIgY2xhc3M9Im1lbWJlcnMtZ3JvdXAgdGV4dCI+PGcgdHJhbnNmb3JtPSJ0cmFuc2xhdGUoMCwtMTIpIiBzdHlsZT0iIiBjbGFzcz0ibGFiZWwiPjxmb3JlaWduT2JqZWN0IGhlaWdodD0iMjQiIHdpZHRoPSI5Ni4xNjQwNjI1Ij48ZGl2IHN0eWxlPSJkaXNwbGF5OiB0YWJsZS1jZWxsOyB3aGl0ZS1zcGFjZTogbm93cmFwOyBsaW5lLWhlaWdodDogMS41OyBtYXgtd2lkdGg6IDE0N3B4OyB0ZXh0LWFsaWduOiBjZW50ZXI7IiB4bWxucz0iaHR0cDovL3d3dy53My5vcmcvMTk5OS94aHRtbCI+PHNwYW4gc3R5bGU9IiIgY2xhc3M9Im5vZGVMYWJlbCBtYXJrZG93bi1ub2RlLWxhYmVsIj48cD4tcXVhbnRpdHk6IGludDwvcD48L3NwYW4+PC9kaXY+PC9mb3JlaWduT2JqZWN0PjwvZz48ZyB0cmFuc2Zvcm09InRyYW5zbGF0ZSgwLDEyKSIgc3R5bGU9IiIgY2xhc3M9ImxhYmVsIj48Zm9yZWlnbk9iamVjdCBoZWlnaHQ9IjI0IiB3aWR0aD0iMTIwLjUzOTA2MjUiPjxkaXYgc3R5bGU9ImRpc3BsYXk6IHRhYmxlLWNlbGw7IHdoaXRlLXNwYWNlOiBub3dyYXA7IGxpbmUtaGVpZ2h0OiAxLjU7IG1heC13aWR0aDogMTY5cHg7IHRleHQtYWxpZ246IGNlbnRlcjsiIHhtbG5zPSJodHRwOi8vd3d3LnczLm9yZy8xOTk5L3hodG1sIj48c3BhbiBzdHlsZT0iIiBjbGFzcz0ibm9kZUxhYmVsIG1hcmtkb3duLW5vZGUtbGFiZWwiPjxwPi10b3RhbFByaWNlOiBmbG9hdDwvcD48L3NwYW4+PC9kaXY+PC9mb3JlaWduT2JqZWN0PjwvZz48L2c+PGcgdHJhbnNmb3JtPSJ0cmFuc2xhdGUoLTc5LjU1NjY0MDYyNSwgNzIpIiBjbGFzcz0ibWV0aG9kcy1ncm91cCB0ZXh0Ij48L2c+PGcgc3R5bGU9IiIgY2xhc3M9ImRpdmlkZXIiPjxwYXRoIHN0eWxlPSIiIGZpbGw9Im5vbmUiIHN0cm9rZS13aWR0aD0iMS4zIiBzdHJva2U9IiM5OTkiIGQ9Ik0tOTEuNTU2NjQwNjI1IC0yNCBDLTQ5Ljg0MzYxMDQ1MTA1NzE5NSAtMjQsIC04LjEzMDU4MDI3NzExNDM5IC0yNCwgOTEuNTU2NjQwNjI1IC0yNCBNLTkxLjU1NjY0MDYyNSAtMjQgQy00Ni45NzI1MDQ5MDc3MzQ0NTQgLTI0LCAtMi4zODgzNjkxOTA0Njg5MDczIC0yNCwgOTEuNTU2NjQwNjI1IC0yNCI+PC9wYXRoPjwvZz48ZyBzdHlsZT0iIiBjbGFzcz0iZGl2aWRlciI+PHBhdGggc3R5bGU9IiIgZmlsbD0ibm9uZSIgc3Ryb2tlLXdpZHRoPSIxLjMiIHN0cm9rZT0iIzk5OSIgZD0iTS05MS41NTY2NDA2MjUgNDggQy00OS4zMDA5NDA4MDA2MTc1NDYgNDgsIC03LjA0NTI0MDk3NjIzNTA5MjUgNDgsIDkxLjU1NjY0MDYyNSA0OCBNLTkxLjU1NjY0MDYyNSA0OCBDLTM0LjA2MzcyNzE0NjA5NzQ1NiA0OCwgMjMuNDI5MTg2MzMyODA1MDg4IDQ4LCA5MS41NTY2NDA2MjUgNDgiPjwvcGF0aD48L2c+PC9nPjxnIHRyYW5zZm9ybT0idHJhbnNsYXRlKDQ2MC44NzMwNDY4NzUsIDY1NykiIGlkPSJjbGFzc0lkLUludm9pY2UtMjciIGNsYXNzPSJub2RlIGRlZmF1bHQiPjxnIGNsYXNzPSJiYXNpYyBsYWJlbC1jb250YWluZXIiPjxwYXRoIHN0eWxlPSIiIGZpbGw9IiNlZWUiIHN0cm9rZS13aWR0aD0iMCIgc3Ryb2tlPSJub25lIiBkPSJNLTk1LjQyMTg3NSAtODQgTDk1LjQyMTg3NSAtODQgTDk1LjQyMTg3NSA4NCBMLTk1LjQyMTg3NSA4NCI+PC9wYXRoPjxwYXRoIHN0eWxlPSIiIGZpbGw9Im5vbmUiIHN0cm9rZS13aWR0aD0iMS4zIiBzdHJva2U9IiM5OTkiIGQ9Ik0tOTUuNDIxODc1IC04NCBDLTUxLjg5MDkzMzMzNTcwOTIxNCAtODQsIC04LjM1OTk5MTY3MTQxODQyNyAtODQsIDk1LjQyMTg3NSAtODQgTS05NS40MjE4NzUgLTg0IEMtMzUuNzYzODQ3ODY0MzE4NzQgLTg0LCAyMy44OTQxNzkyNzEzNjI1MTggLTg0LCA5NS40MjE4NzUgLTg0IE05NS40MjE4NzUgLTg0IEM5NS40MjE4NzUgLTI0LjIzMzgyOTUwMjQ2MDUxNiwgOTUuNDIxODc1IDM1LjUzMjM0MDk5NTA3ODk3LCA5NS40MjE4NzUgODQgTTk1LjQyMTg3NSAtODQgQzk1LjQyMTg3NSAtNDYuOTY4ODM5NTgzMzY2ODUsIDk1LjQyMTg3NSAtOS45Mzc2NzkxNjY3MzM3MDIsIDk1LjQyMTg3NSA4NCBNOTUuNDIxODc1IDg0IEMzNC41ODMxNTg3OTYwNTkzNyA4NCwgLTI2LjI1NTU1NzQwNzg4MTI1NSA4NCwgLTk1LjQyMTg3NSA4NCBNOTUuNDIxODc1IDg0IEMzNS4xNDExNjMxMDkxNDcyNyA4NCwgLTI1LjEzOTU0ODc4MTcwNTQ1NyA4NCwgLTk1LjQyMTg3NSA4NCBNLTk1LjQyMTg3NSA4NCBDLTk1LjQyMTg3NSAzOC4zNzc5MTQxMjc3NjAyNywgLTk1LjQyMTg3NSAtNy4yNDQxNzE3NDQ0Nzk0NTksIC05NS40MjE4NzUgLTg0IE0tOTUuNDIxODc1IDg0IEMtOTUuNDIxODc1IDQwLjAwMjI5OTE0Nzg3MTg4LCAtOTUuNDIxODc1IC0zLjk5NTQwMTcwNDI1NjIzODQsIC05NS40MjE4NzUgLTg0Ij48L3BhdGg+PC9nPjxnIHRyYW5zZm9ybT0idHJhbnNsYXRlKDAsIC02MCkiIGNsYXNzPSJhbm5vdGF0aW9uLWdyb3VwIHRleHQiPjwvZz48ZyB0cmFuc2Zvcm09InRyYW5zbGF0ZSgtMjYuNzczNDM3NSwgLTYwKSIgY2xhc3M9ImxhYmVsLWdyb3VwIHRleHQiPjxnIHRyYW5zZm9ybT0idHJhbnNsYXRlKDAsLTEyKSIgc3R5bGU9ImZvbnQtd2VpZ2h0OiBib2xkZXIiIGNsYXNzPSJsYWJlbCI+PGZvcmVpZ25PYmplY3QgaGVpZ2h0PSIyNCIgd2lkdGg9IjUzLjU0Njg3NSI+PGRpdiBzdHlsZT0iZGlzcGxheTogdGFibGUtY2VsbDsgd2hpdGUtc3BhY2U6IG5vd3JhcDsgbGluZS1oZWlnaHQ6IDEuNTsgbWF4LXdpZHRoOiAxMDBweDsgdGV4dC1hbGlnbjogY2VudGVyOyIgeG1sbnM9Imh0dHA6Ly93d3cudzMub3JnLzE5OTkveGh0bWwiPjxzcGFuIHN0eWxlPSIiIGNsYXNzPSJub2RlTGFiZWwgbWFya2Rvd24tbm9kZS1sYWJlbCI+PHA+SW52b2ljZTwvcD48L3NwYW4+PC9kaXY+PC9mb3JlaWduT2JqZWN0PjwvZz48L2c+PGcgdHJhbnNmb3JtPSJ0cmFuc2xhdGUoLTgzLjQyMTg3NSwgLTEyKSIgY2xhc3M9Im1lbWJlcnMtZ3JvdXAgdGV4dCI+PGcgdHJhbnNmb3JtPSJ0cmFuc2xhdGUoMCwtMTIpIiBzdHlsZT0iIiBjbGFzcz0ibGFiZWwiPjxmb3JlaWduT2JqZWN0IGhlaWdodD0iMjQiIHdpZHRoPSI0OS42OTUzMTI1Ij48ZGl2IHN0eWxlPSJkaXNwbGF5OiB0YWJsZS1jZWxsOyB3aGl0ZS1zcGFjZTogbm93cmFwOyBsaW5lLWhlaWdodDogMS41OyBtYXgtd2lkdGg6IDEwM3B4OyB0ZXh0LWFsaWduOiBjZW50ZXI7IiB4bWxucz0iaHR0cDovL3d3dy53My5vcmcvMTk5OS94aHRtbCI+PHNwYW4gc3R5bGU9IiIgY2xhc3M9Im5vZGVMYWJlbCBtYXJrZG93bi1ub2RlLWxhYmVsIj48cD4taWQ6IGludDwvcD48L3NwYW4+PC9kaXY+PC9mb3JlaWduT2JqZWN0PjwvZz48ZyB0cmFuc2Zvcm09InRyYW5zbGF0ZSgwLDEyKSIgc3R5bGU9IiIgY2xhc3M9ImxhYmVsIj48Zm9yZWlnbk9iamVjdCBoZWlnaHQ9IjI0IiB3aWR0aD0iMTM0LjA4NTkzNzUiPjxkaXYgc3R5bGU9ImRpc3BsYXk6IHRhYmxlLWNlbGw7IHdoaXRlLXNwYWNlOiBub3dyYXA7IGxpbmUtaGVpZ2h0OiAxLjU7IG1heC13aWR0aDogMTg3cHg7IHRleHQtYWxpZ246IGNlbnRlcjsiIHhtbG5zPSJodHRwOi8vd3d3LnczLm9yZy8xOTk5L3hodG1sIj48c3BhbiBzdHlsZT0iIiBjbGFzcz0ibm9kZUxhYmVsIG1hcmtkb3duLW5vZGUtbGFiZWwiPjxwPi1pbnZvaWNlRGF0ZTogRGF0ZTwvcD48L3NwYW4+PC9kaXY+PC9mb3JlaWduT2JqZWN0PjwvZz48ZyB0cmFuc2Zvcm09InRyYW5zbGF0ZSgwLDM2KSIgc3R5bGU9IiIgY2xhc3M9ImxhYmVsIj48Zm9yZWlnbk9iamVjdCBoZWlnaHQ9IjI0IiB3aWR0aD0iMTQwLjA3MDMxMjUiPjxkaXYgc3R5bGU9ImRpc3BsYXk6IHRhYmxlLWNlbGw7IHdoaXRlLXNwYWNlOiBub3dyYXA7IGxpbmUtaGVpZ2h0OiAxLjU7IG1heC13aWR0aDogMTkycHg7IHRleHQtYWxpZ246IGNlbnRlcjsiIHhtbG5zPSJodHRwOi8vd3d3LnczLm9yZy8xOTk5L3hodG1sIj48c3BhbiBzdHlsZT0iIiBjbGFzcz0ibm9kZUxhYmVsIG1hcmtkb3duLW5vZGUtbGFiZWwiPjxwPi10b3RhbEFtb3VudDogZmxvYXQ8L3A+PC9zcGFuPjwvZGl2PjwvZm9yZWlnbk9iamVjdD48L2c+PC9nPjxnIHRyYW5zZm9ybT0idHJhbnNsYXRlKC04My40MjE4NzUsIDg0KSIgY2xhc3M9Im1ldGhvZHMtZ3JvdXAgdGV4dCI+PC9nPjxnIHN0eWxlPSIiIGNsYXNzPSJkaXZpZGVyIj48cGF0aCBzdHlsZT0iIiBmaWxsPSJub25lIiBzdHJva2Utd2lkdGg9IjEuMyIgc3Ryb2tlPSIjOTk5IiBkPSJNLTk1LjQyMTg3NSAtMzYgQy00OS4yNDk1NTY2NTIyODY5ODQgLTM2LCAtMy4wNzcyMzgzMDQ1NzM5NjczIC0zNiwgOTUuNDIxODc1IC0zNiBNLTk1LjQyMTg3NSAtMzYgQy0zNS43Mjc5MjE2NTIxNTI5NyAtMzYsIDIzLjk2NjAzMTY5NTY5NDA1NiAtMzYsIDk1LjQyMTg3NSAtMzYiPjwvcGF0aD48L2c+PGcgc3R5bGU9IiIgY2xhc3M9ImRpdmlkZXIiPjxwYXRoIHN0eWxlPSIiIGZpbGw9Im5vbmUiIHN0cm9rZS13aWR0aD0iMS4zIiBzdHJva2U9IiM5OTkiIGQ9Ik0tOTUuNDIxODc1IDYwIEMtMzEuNTMzOTkyMzExNzkxMDI1IDYwLCAzMi4zNTM4OTAzNzY0MTc5NSA2MCwgOTUuNDIxODc1IDYwIE0tOTUuNDIxODc1IDYwIEMtNTQuNDc1NDUxNTI5MjcwNjQgNjAsIC0xMy41MjkwMjgwNTg1NDEyODYgNjAsIDk1LjQyMTg3NSA2MCI+PC9wYXRoPjwvZz48L2c+PGcgdHJhbnNmb3JtPSJ0cmFuc2xhdGUoNzA3LjEzMDg1OTM3NSwgNjU3KSIgaWQ9ImNsYXNzSWQtUGF5bWVudC0yOCIgY2xhc3M9Im5vZGUgZGVmYXVsdCI+PGcgY2xhc3M9ImJhc2ljIGxhYmVsLWNvbnRhaW5lciI+PHBhdGggc3R5bGU9IiIgZmlsbD0iI2VlZSIgc3Ryb2tlLXdpZHRoPSIwIiBzdHJva2U9Im5vbmUiIGQ9Ik0tMTAwLjgzNTkzNzUgLTk2IEwxMDAuODM1OTM3NSAtOTYgTDEwMC44MzU5Mzc1IDk2IEwtMTAwLjgzNTkzNzUgOTYiPjwvcGF0aD48cGF0aCBzdHlsZT0iIiBmaWxsPSJub25lIiBzdHJva2Utd2lkdGg9IjEuMyIgc3Ryb2tlPSIjOTk5IiBkPSJNLTEwMC44MzU5Mzc1IC05NiBDLTM3Ljg0Mjk2NzQ4NzY2Mzg1IC05NiwgMjUuMTUwMDAyNTI0NjcyMzAzIC05NiwgMTAwLjgzNTkzNzUgLTk2IE0tMTAwLjgzNTkzNzUgLTk2IEMtMjAuMjkzNDQyNDU0Mjc5MTczIC05NiwgNjAuMjQ5MDUyNTkxNDQxNjU0IC05NiwgMTAwLjgzNTkzNzUgLTk2IE0xMDAuODM1OTM3NSAtOTYgQzEwMC44MzU5Mzc1IC0zMS41NjY2NjQ2MDczNjQ2LCAxMDAuODM1OTM3NSAzMi44NjY2NzA3ODUyNzA4LCAxMDAuODM1OTM3NSA5NiBNMTAwLjgzNTkzNzUgLTk2IEMxMDAuODM1OTM3NSAtMzcuMDQ1ODczOTEzNzQxMDIsIDEwMC44MzU5Mzc1IDIxLjkwODI1MjE3MjUxNzk2LCAxMDAuODM1OTM3NSA5NiBNMTAwLjgzNTkzNzUgOTYgQzU5Ljk5MDM1MjI5MTY0MzM1NCA5NiwgMTkuMTQ0NzY3MDgzMjg2NzEgOTYsIC0xMDAuODM1OTM3NSA5NiBNMTAwLjgzNTkzNzUgOTYgQzQ2LjY1NTAzOTM4NDI4Nzk5IDk2LCAtNy41MjU4NTg3MzE0MjQwMjMgOTYsIC0xMDAuODM1OTM3NSA5NiBNLTEwMC44MzU5Mzc1IDk2IEMtMTAwLjgzNTkzNzUgMzQuNDIxMDkyODQ2MTMzNTUsIC0xMDAuODM1OTM3NSAtMjcuMTU3ODE0MzA3NzMyOTA2LCAtMTAwLjgzNTkzNzUgLTk2IE0tMTAwLjgzNTkzNzUgOTYgQy0xMDAuODM1OTM3NSA1My4xMDQwNzE2ODkxMTQ3MywgLTEwMC44MzU5Mzc1IDEwLjIwODE0MzM3ODIyOTQ2NSwgLTEwMC44MzU5Mzc1IC05NiI+PC9wYXRoPjwvZz48ZyB0cmFuc2Zvcm09InRyYW5zbGF0ZSgwLCAtNzIpIiBjbGFzcz0iYW5ub3RhdGlvbi1ncm91cCB0ZXh0Ij48L2c+PGcgdHJhbnNmb3JtPSJ0cmFuc2xhdGUoLTMyLjIxODc1LCAtNzIpIiBjbGFzcz0ibGFiZWwtZ3JvdXAgdGV4dCI+PGcgdHJhbnNmb3JtPSJ0cmFuc2xhdGUoMCwtMTIpIiBzdHlsZT0iZm9udC13ZWlnaHQ6IGJvbGRlciIgY2xhc3M9ImxhYmVsIj48Zm9yZWlnbk9iamVjdCBoZWlnaHQ9IjI0IiB3aWR0aD0iNjQuNDM3NSI+PGRpdiBzdHlsZT0iZGlzcGxheTogdGFibGUtY2VsbDsgd2hpdGUtc3BhY2U6IG5vd3JhcDsgbGluZS1oZWlnaHQ6IDEuNTsgbWF4LXdpZHRoOiAxMTFweDsgdGV4dC1hbGlnbjogY2VudGVyOyIgeG1sbnM9Imh0dHA6Ly93d3cudzMub3JnLzE5OTkveGh0bWwiPjxzcGFuIHN0eWxlPSIiIGNsYXNzPSJub2RlTGFiZWwgbWFya2Rvd24tbm9kZS1sYWJlbCI+PHA+UGF5bWVudDwvcD48L3NwYW4+PC9kaXY+PC9mb3JlaWduT2JqZWN0PjwvZz48L2c+PGcgdHJhbnNmb3JtPSJ0cmFuc2xhdGUoLTg4LjgzNTkzNzUsIC0yNCkiIGNsYXNzPSJtZW1iZXJzLWdyb3VwIHRleHQiPjxnIHRyYW5zZm9ybT0idHJhbnNsYXRlKDAsLTEyKSIgc3R5bGU9IiIgY2xhc3M9ImxhYmVsIj48Zm9yZWlnbk9iamVjdCBoZWlnaHQ9IjI0IiB3aWR0aD0iNDkuNjk1MzEyNSI+PGRpdiBzdHlsZT0iZGlzcGxheTogdGFibGUtY2VsbDsgd2hpdGUtc3BhY2U6IG5vd3JhcDsgbGluZS1oZWlnaHQ6IDEuNTsgbWF4LXdpZHRoOiAxMDNweDsgdGV4dC1hbGlnbjogY2VudGVyOyIgeG1sbnM9Imh0dHA6Ly93d3cudzMub3JnLzE5OTkveGh0bWwiPjxzcGFuIHN0eWxlPSIiIGNsYXNzPSJub2RlTGFiZWwgbWFya2Rvd24tbm9kZS1sYWJlbCI+PHA+LWlkOiBpbnQ8L3A+PC9zcGFuPjwvZGl2PjwvZm9yZWlnbk9iamVjdD48L2c+PGcgdHJhbnNmb3JtPSJ0cmFuc2xhdGUoMCwxMikiIHN0eWxlPSIiIGNsYXNzPSJsYWJlbCI+PGZvcmVpZ25PYmplY3QgaGVpZ2h0PSIyNCIgd2lkdGg9IjE0NS40NTMxMjUiPjxkaXYgc3R5bGU9ImRpc3BsYXk6IHRhYmxlLWNlbGw7IHdoaXRlLXNwYWNlOiBub3dyYXA7IGxpbmUtaGVpZ2h0OiAxLjU7IG1heC13aWR0aDogMTk5cHg7IHRleHQtYWxpZ246IGNlbnRlcjsiIHhtbG5zPSJodHRwOi8vd3d3LnczLm9yZy8xOTk5L3hodG1sIj48c3BhbiBzdHlsZT0iIiBjbGFzcz0ibm9kZUxhYmVsIG1hcmtkb3duLW5vZGUtbGFiZWwiPjxwPi1wYXltZW50RGF0ZTogRGF0ZTwvcD48L3NwYW4+PC9kaXY+PC9mb3JlaWduT2JqZWN0PjwvZz48ZyB0cmFuc2Zvcm09InRyYW5zbGF0ZSgwLDM2KSIgc3R5bGU9IiIgY2xhc3M9ImxhYmVsIj48Zm9yZWlnbk9iamVjdCBoZWlnaHQ9IjI0IiB3aWR0aD0iMTA0LjY0MDYyNSI+PGRpdiBzdHlsZT0iZGlzcGxheTogdGFibGUtY2VsbDsgd2hpdGUtc3BhY2U6IG5vd3JhcDsgbGluZS1oZWlnaHQ6IDEuNTsgbWF4LXdpZHRoOiAxNThweDsgdGV4dC1hbGlnbjogY2VudGVyOyIgeG1sbnM9Imh0dHA6Ly93d3cudzMub3JnLzE5OTkveGh0bWwiPjxzcGFuIHN0eWxlPSIiIGNsYXNzPSJub2RlTGFiZWwgbWFya2Rvd24tbm9kZS1sYWJlbCI+PHA+LWFtb3VudDogZmxvYXQ8L3A+PC9zcGFuPjwvZGl2PjwvZm9yZWlnbk9iamVjdD48L2c+PGcgdHJhbnNmb3JtPSJ0cmFuc2xhdGUoMCw2MCkiIHN0eWxlPSIiIGNsYXNzPSJsYWJlbCI+PGZvcmVpZ25PYmplY3QgaGVpZ2h0PSIyNCIgd2lkdGg9IjExMS41MzkwNjI1Ij48ZGl2IHN0eWxlPSJkaXNwbGF5OiB0YWJsZS1jZWxsOyB3aGl0ZS1zcGFjZTogbm93cmFwOyBsaW5lLWhlaWdodDogMS41OyBtYXgtd2lkdGg6IDE2NnB4OyB0ZXh0LWFsaWduOiBjZW50ZXI7IiB4bWxucz0iaHR0cDovL3d3dy53My5vcmcvMTk5OS94aHRtbCI+PHNwYW4gc3R5bGU9IiIgY2xhc3M9Im5vZGVMYWJlbCBtYXJrZG93bi1ub2RlLWxhYmVsIj48cD4tbWV0aG9kOiBzdHJpbmc8L3A+PC9zcGFuPjwvZGl2PjwvZm9yZWlnbk9iamVjdD48L2c+PC9nPjxnIHRyYW5zZm9ybT0idHJhbnNsYXRlKC04OC44MzU5Mzc1LCA5NikiIGNsYXNzPSJtZXRob2RzLWdyb3VwIHRleHQiPjwvZz48ZyBzdHlsZT0iIiBjbGFzcz0iZGl2aWRlciI+PHBhdGggc3R5bGU9IiIgZmlsbD0ibm9uZSIgc3Ryb2tlLXdpZHRoPSIxLjMiIHN0cm9rZT0iIzk5OSIgZD0iTS0xMDAuODM1OTM3NSAtNDggQy01Ni44MzQxNjUyNzMwOTE5MyAtNDgsIC0xMi44MzIzOTMwNDYxODM4NTMgLTQ4LCAxMDAuODM1OTM3NSAtNDggTS0xMDAuODM1OTM3NSAtNDggQy01MC42MDQ0Mjk4NjA1MDU3OCAtNDgsIC0wLjM3MjkyMjIyMTAxMTU2MzcgLTQ4LCAxMDAuODM1OTM3NSAtNDgiPjwvcGF0aD48L2c+PGcgc3R5bGU9IiIgY2xhc3M9ImRpdmlkZXIiPjxwYXRoIHN0eWxlPSIiIGZpbGw9Im5vbmUiIHN0cm9rZS13aWR0aD0iMS4zIiBzdHJva2U9IiM5OTkiIGQ9Ik0tMTAwLjgzNTkzNzUgNzIgQy01OS41MzMzNjkxMDczNzE2NCA3MiwgLTE4LjIzMDgwMDcxNDc0MzI4MiA3MiwgMTAwLjgzNTkzNzUgNzIgTS0xMDAuODM1OTM3NSA3MiBDLTUyLjgyODUxMTYzMDY3NDQ3IDcyLCAtNC44MjEwODU3NjEzNDg5Mzk1IDcyLCAxMDAuODM1OTM3NSA3MiI+PC9wYXRoPjwvZz48L2c+PGcgdHJhbnNmb3JtPSJ0cmFuc2xhdGUoMzUzLjQ5NDE0MDYyNSwgMzgwLjUpIiBpZD0iY2xhc3NJZC1BZGRyZXNzLTI5IiBjbGFzcz0ibm9kZSBkZWZhdWx0Ij48ZyBjbGFzcz0iYmFzaWMgbGFiZWwtY29udGFpbmVyIj48cGF0aCBzdHlsZT0iIiBmaWxsPSIjZWVlIiBzdHJva2Utd2lkdGg9IjAiIHN0cm9rZT0ibm9uZSIgZD0iTS04My41MzcxMDkzNzUgLTEwOCBMODMuNTM3MTA5Mzc1IC0xMDggTDgzLjUzNzEwOTM3NSAxMDggTC04My41MzcxMDkzNzUgMTA4Ij48L3BhdGg+PHBhdGggc3R5bGU9IiIgZmlsbD0ibm9uZSIgc3Ryb2tlLXdpZHRoPSIxLjMiIHN0cm9rZT0iIzk5OSIgZD0iTS04My41MzcxMDkzNzUgLTEwOCBDLTM1LjMwNjQyODI4NjM1NTEzNiAtMTA4LCAxMi45MjQyNTI4MDIyODk3MjkgLTEwOCwgODMuNTM3MTA5Mzc1IC0xMDggTS04My41MzcxMDkzNzUgLTEwOCBDLTQxLjk2NDMzNTI4ODg3OTU0IC0xMDgsIC0wLjM5MTU2MTIwMjc1OTA3ODI0IC0xMDgsIDgzLjUzNzEwOTM3NSAtMTA4IE04My41MzcxMDkzNzUgLTEwOCBDODMuNTM3MTA5Mzc1IC00NS4zMzkwNjAyNTg3NTc2NSwgODMuNTM3MTA5Mzc1IDE3LjMyMTg3OTQ4MjQ4NDcwNCwgODMuNTM3MTA5Mzc1IDEwOCBNODMuNTM3MTA5Mzc1IC0xMDggQzgzLjUzNzEwOTM3NSAtMjIuMTMyNTM5MTAyNjgxODc1LCA4My41MzcxMDkzNzUgNjMuNzM0OTIxNzk0NjM2MjUsIDgzLjUzNzEwOTM3NSAxMDggTTgzLjUzNzEwOTM3NSAxMDggQzQxLjUzNDgxNzgyNDgzMjg2IDEwOCwgLTAuNDY3NDczNzI1MzM0Mjg2OSAxMDgsIC04My41MzcxMDkzNzUgMTA4IE04My41MzcxMDkzNzUgMTA4IEMyNy45ODg5MDYwNTM1Mjk1MzMgMTA4LCAtMjcuNTU5Mjk3MjY3OTQwOTM0IDEwOCwgLTgzLjUzNzEwOTM3NSAxMDggTS04My41MzcxMDkzNzUgMTA4IEMtODMuNTM3MTA5Mzc1IDU0LjM4Nzk3ODEwMjk2NTExNCwgLTgzLjUzNzEwOTM3NSAwLjc3NTk1NjIwNTkzMDIyODMsIC04My41MzcxMDkzNzUgLTEwOCBNLTgzLjUzNzEwOTM3NSAxMDggQy04My41MzcxMDkzNzUgMzcuNjgyNjc5NjA4MDQ5NzcsIC04My41MzcxMDkzNzUgLTMyLjYzNDY0MDc4MzkwMDQ2NiwgLTgzLjUzNzEwOTM3NSAtMTA4Ij48L3BhdGg+PC9nPjxnIHRyYW5zZm9ybT0idHJhbnNsYXRlKDAsIC04NCkiIGNsYXNzPSJhbm5vdGF0aW9uLWdyb3VwIHRleHQiPjwvZz48ZyB0cmFuc2Zvcm09InRyYW5zbGF0ZSgtMjkuMjYxNzE4NzUsIC04NCkiIGNsYXNzPSJsYWJlbC1ncm91cCB0ZXh0Ij48ZyB0cmFuc2Zvcm09InRyYW5zbGF0ZSgwLC0xMikiIHN0eWxlPSJmb250LXdlaWdodDogYm9sZGVyIiBjbGFzcz0ibGFiZWwiPjxmb3JlaWduT2JqZWN0IGhlaWdodD0iMjQiIHdpZHRoPSI1OC41MjM0Mzc1Ij48ZGl2IHN0eWxlPSJkaXNwbGF5OiB0YWJsZS1jZWxsOyB3aGl0ZS1zcGFjZTogbm93cmFwOyBsaW5lLWhlaWdodDogMS41OyBtYXgtd2lkdGg6IDEwN3B4OyB0ZXh0LWFsaWduOiBjZW50ZXI7IiB4bWxucz0iaHR0cDovL3d3dy53My5vcmcvMTk5OS94aHRtbCI+PHNwYW4gc3R5bGU9IiIgY2xhc3M9Im5vZGVMYWJlbCBtYXJrZG93bi1ub2RlLWxhYmVsIj48cD5BZGRyZXNzPC9wPjwvc3Bhbj48L2Rpdj48L2ZvcmVpZ25PYmplY3Q+PC9nPjwvZz48ZyB0cmFuc2Zvcm09InRyYW5zbGF0ZSgtNzEuNTM3MTA5Mzc1LCAtMzYpIiBjbGFzcz0ibWVtYmVycy1ncm91cCB0ZXh0Ij48ZyB0cmFuc2Zvcm09InRyYW5zbGF0ZSgwLC0xMikiIHN0eWxlPSIiIGNsYXNzPSJsYWJlbCI+PGZvcmVpZ25PYmplY3QgaGVpZ2h0PSIyNCIgd2lkdGg9Ijk5Ljc4MTI1Ij48ZGl2IHN0eWxlPSJkaXNwbGF5OiB0YWJsZS1jZWxsOyB3aGl0ZS1zcGFjZTogbm93cmFwOyBsaW5lLWhlaWdodDogMS41OyBtYXgtd2lkdGg6IDE1MXB4OyB0ZXh0LWFsaWduOiBjZW50ZXI7IiB4bWxucz0iaHR0cDovL3d3dy53My5vcmcvMTk5OS94aHRtbCI+PHNwYW4gc3R5bGU9IiIgY2xhc3M9Im5vZGVMYWJlbCBtYXJrZG93bi1ub2RlLWxhYmVsIj48cD4tc3RyZWV0OiBzdHJpbmc8L3A+PC9zcGFuPjwvZGl2PjwvZm9yZWlnbk9iamVjdD48L2c+PGcgdHJhbnNmb3JtPSJ0cmFuc2xhdGUoMCwxMikiIHN0eWxlPSIiIGNsYXNzPSJsYWJlbCI+PGZvcmVpZ25PYmplY3QgaGVpZ2h0PSIyNCIgd2lkdGg9IjgzLjY2NDA2MjUiPjxkaXYgc3R5bGU9ImRpc3BsYXk6IHRhYmxlLWNlbGw7IHdoaXRlLXNwYWNlOiBub3dyYXA7IGxpbmUtaGVpZ2h0OiAxLjU7IG1heC13aWR0aDogMTM1cHg7IHRleHQtYWxpZ246IGNlbnRlcjsiIHhtbG5zPSJodHRwOi8vd3d3LnczLm9yZy8xOTk5L3hodG1sIj48c3BhbiBzdHlsZT0iIiBjbGFzcz0ibm9kZUxhYmVsIG1hcmtkb3duLW5vZGUtbGFiZWwiPjxwPi1jaXR5OiBzdHJpbmc8L3A+PC9zcGFuPjwvZGl2PjwvZm9yZWlnbk9iamVjdD48L2c+PGcgdHJhbnNmb3JtPSJ0cmFuc2xhdGUoMCwzNikiIHN0eWxlPSIiIGNsYXNzPSJsYWJlbCI+PGZvcmVpZ25PYmplY3QgaGVpZ2h0PSIyNCIgd2lkdGg9IjkzLjI0MjE4NzUiPjxkaXYgc3R5bGU9ImRpc3BsYXk6IHRhYmxlLWNlbGw7IHdoaXRlLXNwYWNlOiBub3dyYXA7IGxpbmUtaGVpZ2h0OiAxLjU7IG1heC13aWR0aDogMTQ1cHg7IHRleHQtYWxpZ246IGNlbnRlcjsiIHhtbG5zPSJodHRwOi8vd3d3LnczLm9yZy8xOTk5L3hodG1sIj48c3BhbiBzdHlsZT0iIiBjbGFzcz0ibm9kZUxhYmVsIG1hcmtkb3duLW5vZGUtbGFiZWwiPjxwPi1zdGF0ZTogc3RyaW5nPC9wPjwvc3Bhbj48L2Rpdj48L2ZvcmVpZ25PYmplY3Q+PC9nPjxnIHRyYW5zZm9ybT0idHJhbnNsYXRlKDAsNjApIiBzdHlsZT0iIiBjbGFzcz0ibGFiZWwiPjxmb3JlaWduT2JqZWN0IGhlaWdodD0iMjQiIHdpZHRoPSIxMTMuODEyNSI+PGRpdiBzdHlsZT0iZGlzcGxheTogdGFibGUtY2VsbDsgd2hpdGUtc3BhY2U6IG5vd3JhcDsgbGluZS1oZWlnaHQ6IDEuNTsgbWF4LXdpZHRoOiAxNjlweDsgdGV4dC1hbGlnbjogY2VudGVyOyIgeG1sbnM9Imh0dHA6Ly93d3cudzMub3JnLzE5OTkveGh0bWwiPjxzcGFuIHN0eWxlPSIiIGNsYXNzPSJub2RlTGFiZWwgbWFya2Rvd24tbm9kZS1sYWJlbCI+PHA+LXppcENvZGU6IHN0cmluZzwvcD48L3NwYW4+PC9kaXY+PC9mb3JlaWduT2JqZWN0PjwvZz48ZyB0cmFuc2Zvcm09InRyYW5zbGF0ZSgwLDg0KSIgc3R5bGU9IiIgY2xhc3M9ImxhYmVsIj48Zm9yZWlnbk9iamVjdCBoZWlnaHQ9IjI0IiB3aWR0aD0iMTExLjM5MDYyNSI+PGRpdiBzdHlsZT0iZGlzcGxheTogdGFibGUtY2VsbDsgd2hpdGUtc3BhY2U6IG5vd3JhcDsgbGluZS1oZWlnaHQ6IDEuNTsgbWF4LXdpZHRoOiAxNjVweDsgdGV4dC1hbGlnbjogY2VudGVyOyIgeG1sbnM9Imh0dHA6Ly93d3cudzMub3JnLzE5OTkveGh0bWwiPjxzcGFuIHN0eWxlPSIiIGNsYXNzPSJub2RlTGFiZWwgbWFya2Rvd24tbm9kZS1sYWJlbCI+PHA+LWNvdW50cnk6IHN0cmluZzwvcD48L3NwYW4+PC9kaXY+PC9mb3JlaWduT2JqZWN0PjwvZz48L2c+PGcgdHJhbnNmb3JtPSJ0cmFuc2xhdGUoLTcxLjUzNzEwOTM3NSwgMTA4KSIgY2xhc3M9Im1ldGhvZHMtZ3JvdXAgdGV4dCI+PC9nPjxnIHN0eWxlPSIiIGNsYXNzPSJkaXZpZGVyIj48cGF0aCBzdHlsZT0iIiBmaWxsPSJub25lIiBzdHJva2Utd2lkdGg9IjEuMyIgc3Ryb2tlPSIjOTk5IiBkPSJNLTgzLjUzNzEwOTM3NSAtNjAgQy0yNy4wOTgzNTgzNDgwOTkxNTQgLTYwLCAyOS4zNDAzOTI2Nzg4MDE2OSAtNjAsIDgzLjUzNzEwOTM3NSAtNjAgTS04My41MzcxMDkzNzUgLTYwIEMtMjUuNDY5NDU3NTMyMjAzMDczIC02MCwgMzIuNTk4MTk0MzEwNTkzODU0IC02MCwgODMuNTM3MTA5Mzc1IC02MCI+PC9wYXRoPjwvZz48ZyBzdHlsZT0iIiBjbGFzcz0iZGl2aWRlciI+PHBhdGggc3R5bGU9IiIgZmlsbD0ibm9uZSIgc3Ryb2tlLXdpZHRoPSIxLjMiIHN0cm9rZT0iIzk5OSIgZD0iTS04My41MzcxMDkzNzUgODQgQy0zOC4xMTE3ODgxNTczMTczIDg0LCA3LjMxMzUzMzA2MDM2NTQwMSA4NCwgODMuNTM3MTA5Mzc1IDg0IE0tODMuNTM3MTA5Mzc1IDg0IEMtMjIuODQ1ODk2ODgwNjUxODg1IDg0LCAzNy44NDUzMTU2MTM2OTYyMyA4NCwgODMuNTM3MTA5Mzc1IDg0Ij48L3BhdGg+PC9nPjwvZz48ZyB0cmFuc2Zvcm09InRyYW5zbGF0ZSgxMTMuOTc4NTE1NjI1LCAzODAuNSkiIGlkPSJjbGFzc0lkLVNob3BwaW5nQ2FydC0zMCIgY2xhc3M9Im5vZGUgZGVmYXVsdCI+PGcgY2xhc3M9ImJhc2ljIGxhYmVsLWNvbnRhaW5lciI+PHBhdGggc3R5bGU9IiIgZmlsbD0iI2VlZSIgc3Ryb2tlLXdpZHRoPSIwIiBzdHJva2U9Im5vbmUiIGQ9Ik0tMTA1Ljk3ODUxNTYyNSAtNjAgTDEwNS45Nzg1MTU2MjUgLTYwIEwxMDUuOTc4NTE1NjI1IDYwIEwtMTA1Ljk3ODUxNTYyNSA2MCI+PC9wYXRoPjxwYXRoIHN0eWxlPSIiIGZpbGw9Im5vbmUiIHN0cm9rZS13aWR0aD0iMS4zIiBzdHJva2U9IiM5OTkiIGQ9Ik0tMTA1Ljk3ODUxNTYyNSAtNjAgQy0zNi45ODUyMDA3NTQwMjczOSAtNjAsIDMyLjAwODExNDExNjk0NTIyIC02MCwgMTA1Ljk3ODUxNTYyNSAtNjAgTS0xMDUuOTc4NTE1NjI1IC02MCBDLTIyLjkwNTE3Njc3MzcwMzc0NCAtNjAsIDYwLjE2ODE2MjA3NzU5MjUxIC02MCwgMTA1Ljk3ODUxNTYyNSAtNjAgTTEwNS45Nzg1MTU2MjUgLTYwIEMxMDUuOTc4NTE1NjI1IC0yNC40MjgyOTk5MzUwMzg5MTUsIDEwNS45Nzg1MTU2MjUgMTEuMTQzNDAwMTI5OTIyMTcsIDEwNS45Nzg1MTU2MjUgNjAgTTEwNS45Nzg1MTU2MjUgLTYwIEMxMDUuOTc4NTE1NjI1IC0zNC42MTE2NDkzNjgxNzU0MiwgMTA1Ljk3ODUxNTYyNSAtOS4yMjMyOTg3MzYzNTA4NDEsIDEwNS45Nzg1MTU2MjUgNjAgTTEwNS45Nzg1MTU2MjUgNjAgQzI0LjU2NTM3NjMyMTA4MTk0MiA2MCwgLTU2Ljg0Nzc2Mjk4MjgzNjExNiA2MCwgLTEwNS45Nzg1MTU2MjUgNjAgTTEwNS45Nzg1MTU2MjUgNjAgQzU3LjE3OTczNTI0MzQwMDg0IDYwLCA4LjM4MDk1NDg2MTgwMTY4MyA2MCwgLTEwNS45Nzg1MTU2MjUgNjAgTS0xMDUuOTc4NTE1NjI1IDYwIEMtMTA1Ljk3ODUxNTYyNSAyMS4wNjU1Nzk0MjA0NTUwNSwgLTEwNS45Nzg1MTU2MjUgLTE3Ljg2ODg0MTE1OTA4OTg5NywgLTEwNS45Nzg1MTU2MjUgLTYwIE0tMTA1Ljk3ODUxNTYyNSA2MCBDLTEwNS45Nzg1MTU2MjUgMTUuNzA0ODczMTkzMTQ0MDUzLCAtMTA1Ljk3ODUxNTYyNSAtMjguNTkwMjUzNjEzNzExODk0LCAtMTA1Ljk3ODUxNTYyNSAtNjAiPjwvcGF0aD48L2c+PGcgdHJhbnNmb3JtPSJ0cmFuc2xhdGUoMCwgLTM2KSIgY2xhc3M9ImFubm90YXRpb24tZ3JvdXAgdGV4dCI+PC9nPjxnIHRyYW5zZm9ybT0idHJhbnNsYXRlKC00OS41NTA3ODEyNSwgLTM2KSIgY2xhc3M9ImxhYmVsLWdyb3VwIHRleHQiPjxnIHRyYW5zZm9ybT0idHJhbnNsYXRlKDAsLTEyKSIgc3R5bGU9ImZvbnQtd2VpZ2h0OiBib2xkZXIiIGNsYXNzPSJsYWJlbCI+PGZvcmVpZ25PYmplY3QgaGVpZ2h0PSIyNCIgd2lkdGg9Ijk5LjEwMTU2MjUiPjxkaXYgc3R5bGU9ImRpc3BsYXk6IHRhYmxlLWNlbGw7IHdoaXRlLXNwYWNlOiBub3dyYXA7IGxpbmUtaGVpZ2h0OiAxLjU7IG1heC13aWR0aDogMTQ3cHg7IHRleHQtYWxpZ246IGNlbnRlcjsiIHhtbG5zPSJodHRwOi8vd3d3LnczLm9yZy8xOTk5L3hodG1sIj48c3BhbiBzdHlsZT0iIiBjbGFzcz0ibm9kZUxhYmVsIG1hcmtkb3duLW5vZGUtbGFiZWwiPjxwPlNob3BwaW5nQ2FydDwvcD48L3NwYW4+PC9kaXY+PC9mb3JlaWduT2JqZWN0PjwvZz48L2c+PGcgdHJhbnNmb3JtPSJ0cmFuc2xhdGUoLTkzLjk3ODUxNTYyNSwgMTIpIiBjbGFzcz0ibWVtYmVycy1ncm91cCB0ZXh0Ij48ZyB0cmFuc2Zvcm09InRyYW5zbGF0ZSgwLC0xMikiIHN0eWxlPSIiIGNsYXNzPSJsYWJlbCI+PGZvcmVpZ25PYmplY3QgaGVpZ2h0PSIyNCIgd2lkdGg9IjEzOC40MDYyNSI+PGRpdiBzdHlsZT0iZGlzcGxheTogdGFibGUtY2VsbDsgd2hpdGUtc3BhY2U6IG5vd3JhcDsgbGluZS1oZWlnaHQ6IDEuNTsgbWF4LXdpZHRoOiAxOTBweDsgdGV4dC1hbGlnbjogY2VudGVyOyIgeG1sbnM9Imh0dHA6Ly93d3cudzMub3JnLzE5OTkveGh0bWwiPjxzcGFuIHN0eWxlPSIiIGNsYXNzPSJub2RlTGFiZWwgbWFya2Rvd24tbm9kZS1sYWJlbCI+PHA+LWNyZWF0ZWREYXRlOiBEYXRlPC9wPjwvc3Bhbj48L2Rpdj48L2ZvcmVpZ25PYmplY3Q+PC9nPjwvZz48ZyB0cmFuc2Zvcm09InRyYW5zbGF0ZSgtOTMuOTc4NTE1NjI1LCA2MCkiIGNsYXNzPSJtZXRob2RzLWdyb3VwIHRleHQiPjwvZz48ZyBzdHlsZT0iIiBjbGFzcz0iZGl2aWRlciI+PHBhdGggc3R5bGU9IiIgZmlsbD0ibm9uZSIgc3Ryb2tlLXdpZHRoPSIxLjMiIHN0cm9rZT0iIzk5OSIgZD0iTS0xMDUuOTc4NTE1NjI1IC0xMiBDLTI2LjQyMjIxNzY3MTYyMzAxNyAtMTIsIDUzLjEzNDA4MDI4MTc1Mzk3IC0xMiwgMTA1Ljk3ODUxNTYyNSAtMTIgTS0xMDUuOTc4NTE1NjI1IC0xMiBDLTYxLjUyOTIyOTA4MzE0MDQgLTEyLCAtMTcuMDc5OTQyNTQxMjgwOCAtMTIsIDEwNS45Nzg1MTU2MjUgLTEyIj48L3BhdGg+PC9nPjxnIHN0eWxlPSIiIGNsYXNzPSJkaXZpZGVyIj48cGF0aCBzdHlsZT0iIiBmaWxsPSJub25lIiBzdHJva2Utd2lkdGg9IjEuMyIgc3Ryb2tlPSIjOTk5IiBkPSJNLTEwNS45Nzg1MTU2MjUgMzYgQy0zNy45MzU0MjA2MjkwOTYxNCAzNiwgMzAuMTA3Njc0MzY2ODA3NzE0IDM2LCAxMDUuOTc4NTE1NjI1IDM2IE0tMTA1Ljk3ODUxNTYyNSAzNiBDLTU2LjY1Njg5OTQzOTU5MTYwNSAzNiwgLTcuMzM1MjgzMjU0MTgzMjEgMzYsIDEwNS45Nzg1MTU2MjUgMzYiPjwvcGF0aD48L2c+PC9nPjxnIHRyYW5zZm9ybT0idHJhbnNsYXRlKDgwOC45MjU3ODEyNSwgMzgwLjUpIiBpZD0iY2xhc3NJZC1SZXZpZXctMzEiIGNsYXNzPSJub2RlIGRlZmF1bHQiPjxnIGNsYXNzPSJiYXNpYyBsYWJlbC1jb250YWluZXIiPjxwYXRoIHN0eWxlPSIiIGZpbGw9IiNlZWUiIHN0cm9rZS13aWR0aD0iMCIgc3Ryb2tlPSJub25lIiBkPSJNLTkxLjE2NjAxNTYyNSAtODQgTDkxLjE2NjAxNTYyNSAtODQgTDkxLjE2NjAxNTYyNSA4NCBMLTkxLjE2NjAxNTYyNSA4NCI+PC9wYXRoPjxwYXRoIHN0eWxlPSIiIGZpbGw9Im5vbmUiIHN0cm9rZS13aWR0aD0iMS4zIiBzdHJva2U9IiM5OTkiIGQ9Ik0tOTEuMTY2MDE1NjI1IC04NCBDLTI1LjE0MDYzNzc1Mzg3NjkwMiAtODQsIDQwLjg4NDc0MDExNzI0NjE5NiAtODQsIDkxLjE2NjAxNTYyNSAtODQgTS05MS4xNjYwMTU2MjUgLTg0IEMtNDcuMTY3MjM4NjMxMzMyOTkgLTg0LCAtMy4xNjg0NjE2Mzc2NjU5ODQ3IC04NCwgOTEuMTY2MDE1NjI1IC04NCBNOTEuMTY2MDE1NjI1IC04NCBDOTEuMTY2MDE1NjI1IC0yOC4wNTY1MzYzODUwNzQ1MzcsIDkxLjE2NjAxNTYyNSAyNy44ODY5MjcyMjk4NTA5MjYsIDkxLjE2NjAxNTYyNSA4NCBNOTEuMTY2MDE1NjI1IC04NCBDOTEuMTY2MDE1NjI1IC0xOS4xMTA2NzQ4OTc3ODgsIDkxLjE2NjAxNTYyNSA0NS43Nzg2NTAyMDQ0MjQsIDkxLjE2NjAxNTYyNSA4NCBNOTEuMTY2MDE1NjI1IDg0IEM1Mi4wODMwMTg2NjU0ODU1MSA4NCwgMTMuMDAwMDIxNzA1OTcxMDIyIDg0LCAtOTEuMTY2MDE1NjI1IDg0IE05MS4xNjYwMTU2MjUgODQgQzI2LjAyNzQ1MTI0ODI3MjcxMiA4NCwgLTM5LjExMTExMzEyODQ1NDU3NiA4NCwgLTkxLjE2NjAxNTYyNSA4NCBNLTkxLjE2NjAxNTYyNSA4NCBDLTkxLjE2NjAxNTYyNSAyNi4wMTg3NzgwNjczOTg0NzIsIC05MS4xNjYwMTU2MjUgLTMxLjk2MjQ0Mzg2NTIwMzA1NiwgLTkxLjE2NjAxNTYyNSAtODQgTS05MS4xNjYwMTU2MjUgODQgQy05MS4xNjYwMTU2MjUgMzYuMjU3Njg4MTI5MTc5MywgLTkxLjE2NjAxNTYyNSAtMTEuNDg0NjIzNzQxNjQxNCwgLTkxLjE2NjAxNTYyNSAtODQiPjwvcGF0aD48L2c+PGcgdHJhbnNmb3JtPSJ0cmFuc2xhdGUoMCwgLTYwKSIgY2xhc3M9ImFubm90YXRpb24tZ3JvdXAgdGV4dCI+PC9nPjxnIHRyYW5zZm9ybT0idHJhbnNsYXRlKC0yNy4yMDcwMzEyNSwgLTYwKSIgY2xhc3M9ImxhYmVsLWdyb3VwIHRleHQiPjxnIHRyYW5zZm9ybT0idHJhbnNsYXRlKDAsLTEyKSIgc3R5bGU9ImZvbnQtd2VpZ2h0OiBib2xkZXIiIGNsYXNzPSJsYWJlbCI+PGZvcmVpZ25PYmplY3QgaGVpZ2h0PSIyNCIgd2lkdGg9IjU0LjQxNDA2MjUiPjxkaXYgc3R5bGU9ImRpc3BsYXk6IHRhYmxlLWNlbGw7IHdoaXRlLXNwYWNlOiBub3dyYXA7IGxpbmUtaGVpZ2h0OiAxLjU7IG1heC13aWR0aDogOTlweDsgdGV4dC1hbGlnbjogY2VudGVyOyIgeG1sbnM9Imh0dHA6Ly93d3cudzMub3JnLzE5OTkveGh0bWwiPjxzcGFuIHN0eWxlPSIiIGNsYXNzPSJub2RlTGFiZWwgbWFya2Rvd24tbm9kZS1sYWJlbCI+PHA+UmV2aWV3PC9wPjwvc3Bhbj48L2Rpdj48L2ZvcmVpZ25PYmplY3Q+PC9nPjwvZz48ZyB0cmFuc2Zvcm09InRyYW5zbGF0ZSgtNzkuMTY2MDE1NjI1LCAtMTIpIiBjbGFzcz0ibWVtYmVycy1ncm91cCB0ZXh0Ij48ZyB0cmFuc2Zvcm09InRyYW5zbGF0ZSgwLC0xMikiIHN0eWxlPSIiIGNsYXNzPSJsYWJlbCI+PGZvcmVpZ25PYmplY3QgaGVpZ2h0PSIyNCIgd2lkdGg9Ijc4LjUyMzQzNzUiPjxkaXYgc3R5bGU9ImRpc3BsYXk6IHRhYmxlLWNlbGw7IHdoaXRlLXNwYWNlOiBub3dyYXA7IGxpbmUtaGVpZ2h0OiAxLjU7IG1heC13aWR0aDogMTMxcHg7IHRleHQtYWxpZ246IGNlbnRlcjsiIHhtbG5zPSJodHRwOi8vd3d3LnczLm9yZy8xOTk5L3hodG1sIj48c3BhbiBzdHlsZT0iIiBjbGFzcz0ibm9kZUxhYmVsIG1hcmtkb3duLW5vZGUtbGFiZWwiPjxwPi1yYXRpbmc6IGludDwvcD48L3NwYW4+PC9kaXY+PC9mb3JlaWduT2JqZWN0PjwvZz48ZyB0cmFuc2Zvcm09InRyYW5zbGF0ZSgwLDEyKSIgc3R5bGU9IiIgY2xhc3M9ImxhYmVsIj48Zm9yZWlnbk9iamVjdCBoZWlnaHQ9IjI0IiB3aWR0aD0iMTIzLjgyODEyNSI+PGRpdiBzdHlsZT0iZGlzcGxheTogdGFibGUtY2VsbDsgd2hpdGUtc3BhY2U6IG5vd3JhcDsgbGluZS1oZWlnaHQ6IDEuNTsgbWF4LXdpZHRoOiAxNzhweDsgdGV4dC1hbGlnbjogY2VudGVyOyIgeG1sbnM9Imh0dHA6Ly93d3cudzMub3JnLzE5OTkveGh0bWwiPjxzcGFuIHN0eWxlPSIiIGNsYXNzPSJub2RlTGFiZWwgbWFya2Rvd24tbm9kZS1sYWJlbCI+PHA+LWNvbW1lbnQ6IHN0cmluZzwvcD48L3NwYW4+PC9kaXY+PC9mb3JlaWduT2JqZWN0PjwvZz48ZyB0cmFuc2Zvcm09InRyYW5zbGF0ZSgwLDM2KSIgc3R5bGU9IiIgY2xhc3M9ImxhYmVsIj48Zm9yZWlnbk9iamVjdCBoZWlnaHQ9IjI0IiB3aWR0aD0iMTMxLjEyNSI+PGRpdiBzdHlsZT0iZGlzcGxheTogdGFibGUtY2VsbDsgd2hpdGUtc3BhY2U6IG5vd3JhcDsgbGluZS1oZWlnaHQ6IDEuNTsgbWF4LXdpZHRoOiAxODNweDsgdGV4dC1hbGlnbjogY2VudGVyOyIgeG1sbnM9Imh0dHA6Ly93d3cudzMub3JnLzE5OTkveGh0bWwiPjxzcGFuIHN0eWxlPSIiIGNsYXNzPSJub2RlTGFiZWwgbWFya2Rvd24tbm9kZS1sYWJlbCI+PHA+LXJldmlld0RhdGU6IERhdGU8L3A+PC9zcGFuPjwvZGl2PjwvZm9yZWlnbk9iamVjdD48L2c+PC9nPjxnIHRyYW5zZm9ybT0idHJhbnNsYXRlKC03OS4xNjYwMTU2MjUsIDg0KSIgY2xhc3M9Im1ldGhvZHMtZ3JvdXAgdGV4dCI+PC9nPjxnIHN0eWxlPSIiIGNsYXNzPSJkaXZpZGVyIj48cGF0aCBzdHlsZT0iIiBmaWxsPSJub25lIiBzdHJva2Utd2lkdGg9IjEuMyIgc3Ryb2tlPSIjOTk5IiBkPSJNLTkxLjE2NjAxNTYyNSAtMzYgQy00Mi40MjkxNzE5NTEyNjI3NiAtMzYsIDYuMzA3NjcxNzIyNDc0NDgxIC0zNiwgOTEuMTY2MDE1NjI1IC0zNiBNLTkxLjE2NjAxNTYyNSAtMzYgQy00Ni42Njc0MDg0NjU3NjU2MiAtMzYsIC0yLjE2ODgwMTMwNjUzMTIzNiAtMzYsIDkxLjE2NjAxNTYyNSAtMzYiPjwvcGF0aD48L2c+PGcgc3R5bGU9IiIgY2xhc3M9ImRpdmlkZXIiPjxwYXRoIHN0eWxlPSIiIGZpbGw9Im5vbmUiIHN0cm9rZS13aWR0aD0iMS4zIiBzdHJva2U9IiM5OTkiIGQ9Ik0tOTEuMTY2MDE1NjI1IDYwIEMtNDEuOTEyNDg5MjkyOTIxMDcgNjAsIDcuMzQxMDM3MDM5MTU3ODU0IDYwLCA5MS4xNjYwMTU2MjUgNjAgTS05MS4xNjYwMTU2MjUgNjAgQy0zNi4zMTQ0ODA2NjU0MDQ4NiA2MCwgMTguNTM3MDU0Mjk0MTkwMjg0IDYwLCA5MS4xNjYwMTU2MjUgNjAiPjwvcGF0aD48L2c+PC9nPjwvZz48L2c+PC9nPjwvc3ZnPg==;" vertex="1" parent="1">
            <mxGeometry x="-390" y="-50" width="908.091796875" height="1025.5" as="geometry" />
          </mxCell>
        </UserObject>
      </root>
    </mxGraphModel>
  </diagram>
</mxfile>
